<?xml version="1.0" encoding="UTF-8"?>
<svg id="Layer_3" data-name="Layer 3" xmlns="http://www.w3.org/2000/svg" xmlns:xlink="http://www.w3.org/1999/xlink" viewBox="0 0 1233.31 566.93">
  <defs>
    <radialGradient id="radial-gradient" cx="759.16" cy="268.16" fx="759.16" fy="268.16" r="214.71" gradientUnits="userSpaceOnUse">
      <stop offset="0" stop-color="#a2d9d4"/>
      <stop offset="1" stop-color="#4eaba4"/>
    </radialGradient>
    <linearGradient id="linear-gradient" x1="108.72" y1="441.16" x2="405.77" y2="144.11" gradientUnits="userSpaceOnUse">
      <stop offset="0" stop-color="#2a676d"/>
      <stop offset=".46" stop-color="#4eaba4"/>
    </linearGradient>
  </defs>
  <g>
    <g>
      <path d="m592.2,229.16h-33.42v31h37.25v9.31h-48.35v-85.98h46.43v9.31h-35.33v27.17h33.42v9.18Z" fill="#231f20"/>
      <path d="m610.06,224.44c0-6.38-.13-11.61-.51-16.71h9.95l.64,10.21h.25c3.06-5.87,10.21-11.61,20.41-11.61,8.55,0,21.81,5.1,21.81,26.28v36.87h-11.23v-35.59c0-9.95-3.7-18.24-14.29-18.24-7.4,0-13.14,5.23-15.05,11.48-.51,1.4-.76,3.32-.76,5.23v37.12h-11.23v-45.03Z" fill="#231f20"/>
      <path d="m680.86,178.9h11.23v38.52h.25c1.79-3.19,4.59-6,8.04-7.91,3.32-1.91,7.27-3.19,11.48-3.19,8.29,0,21.56,5.1,21.56,26.41v36.74h-11.23v-35.46c0-9.95-3.7-18.37-14.29-18.37-7.27,0-13.01,5.1-15.05,11.23-.64,1.53-.76,3.19-.76,5.36v37.25h-11.23v-90.57Z" fill="#231f20"/>
      <path d="m785.85,269.47l-.89-7.78h-.38c-3.44,4.85-10.08,9.18-18.88,9.18-12.5,0-18.88-8.8-18.88-17.73,0-14.92,13.27-23.09,37.12-22.96v-1.28c0-5.1-1.4-14.29-14.03-14.29-5.74,0-11.74,1.79-16.07,4.59l-2.55-7.4c5.1-3.32,12.5-5.49,20.28-5.49,18.88,0,23.47,12.88,23.47,25.26v23.09c0,5.36.25,10.59,1.02,14.8h-10.21Zm-1.66-31.51c-12.25-.26-26.15,1.91-26.15,13.9,0,7.27,4.85,10.71,10.59,10.71,8.04,0,13.14-5.1,14.92-10.33.38-1.15.64-2.42.64-3.57v-10.71Z" fill="#231f20"/>
      <path d="m813.15,224.44c0-6.38-.13-11.61-.51-16.71h9.95l.64,10.21h.25c3.06-5.87,10.21-11.61,20.41-11.61,8.55,0,21.81,5.1,21.81,26.28v36.87h-11.23v-35.59c0-9.95-3.7-18.24-14.29-18.24-7.4,0-13.14,5.23-15.05,11.48-.51,1.4-.76,3.32-.76,5.23v37.12h-11.23v-45.03Z" fill="#231f20"/>
      <path d="m927.96,267.18c-2.93,1.53-9.44,3.57-17.73,3.57-18.62,0-30.74-12.63-30.74-31.51s13.01-32.78,33.17-32.78c6.63,0,12.5,1.66,15.56,3.19l-2.55,8.67c-2.68-1.53-6.89-2.93-13.01-2.93-14.16,0-21.81,10.46-21.81,23.34,0,14.29,9.18,23.09,21.43,23.09,6.38,0,10.59-1.66,13.78-3.06l1.91,8.42Z" fill="#231f20"/>
      <path d="m953.6,190.38c.13,3.83-2.68,6.89-7.14,6.89-3.95,0-6.76-3.06-6.76-6.89s2.93-7.02,7.02-7.02,6.89,3.06,6.89,7.02Zm-12.5,79.09v-61.74h11.23v61.74h-11.23Z" fill="#231f20"/>
      <path d="m970.95,224.44c0-6.38-.13-11.61-.51-16.71h9.95l.64,10.21h.25c3.06-5.87,10.21-11.61,20.41-11.61,8.55,0,21.81,5.1,21.81,26.28v36.87h-11.23v-35.59c0-9.95-3.7-18.24-14.29-18.24-7.4,0-13.14,5.23-15.05,11.48-.51,1.4-.76,3.32-.76,5.23v37.12h-11.23v-45.03Z" fill="#231f20"/>
      <path d="m1094.94,207.73c-.25,4.46-.51,9.44-.51,16.97v35.84c0,14.16-2.81,22.83-8.8,28.19-6,5.61-14.67,7.4-22.45,7.4s-15.56-1.79-20.54-5.1l2.81-8.55c4.08,2.55,10.46,4.85,18.11,4.85,11.48,0,19.9-6,19.9-21.56v-6.89h-.25c-3.44,5.74-10.08,10.33-19.64,10.33-15.31,0-26.28-13.01-26.28-30.11,0-20.92,13.65-32.78,27.81-32.78,10.72,0,16.58,5.61,19.26,10.71h.26l.51-9.31h9.82Zm-11.61,24.36c0-1.91-.13-3.57-.64-5.1-2.04-6.51-7.53-11.86-15.69-11.86-10.71,0-18.37,9.06-18.37,23.34,0,12.12,6.12,22.2,18.24,22.2,6.89,0,13.14-4.34,15.56-11.48.64-1.91.89-4.08.89-6v-11.1Z" fill="#231f20"/>
      <path d="m566.56,421.84l-28.06-85.98h11.99l13.39,42.35c3.7,11.61,6.89,22.07,9.18,32.15h.25c2.42-9.95,6-20.79,9.82-32.02l14.54-42.48h11.86l-30.74,85.98h-12.25Z" fill="#231f20"/>
      <path d="m648.46,421.84l-.89-7.78h-.38c-3.44,4.85-10.08,9.18-18.88,9.18-12.5,0-18.88-8.8-18.88-17.73,0-14.92,13.27-23.09,37.12-22.96v-1.28c0-5.1-1.4-14.29-14.03-14.29-5.74,0-11.74,1.79-16.07,4.59l-2.55-7.4c5.1-3.32,12.5-5.48,20.28-5.48,18.88,0,23.47,12.88,23.47,25.26v23.09c0,5.36.25,10.59,1.02,14.8h-10.21Zm-1.66-31.51c-12.25-.26-26.15,1.91-26.15,13.9,0,7.27,4.85,10.71,10.59,10.71,8.04,0,13.14-5.1,14.92-10.33.38-1.15.64-2.42.64-3.57v-10.71Z" fill="#231f20"/>
      <path d="m675.76,331.26h11.23v90.57h-11.23v-90.57Z" fill="#231f20"/>
      <path d="m757.53,405c0,6.38.13,11.99.51,16.84h-9.95l-.64-10.08h-.25c-2.93,4.97-9.44,11.48-20.41,11.48-9.69,0-21.3-5.36-21.3-27.04v-36.1h11.23v34.19c0,11.74,3.57,19.64,13.78,19.64,7.53,0,12.76-5.23,14.8-10.21.64-1.66,1.02-3.7,1.02-5.74v-37.89h11.23v44.9Z" fill="#231f20"/>
      <path d="m782.41,393.01c.26,15.18,9.95,21.43,21.18,21.43,8.04,0,12.88-1.4,17.09-3.19l1.91,8.04c-3.95,1.79-10.71,3.83-20.54,3.83-19.01,0-30.36-12.5-30.36-31.12s10.97-33.29,28.96-33.29c20.15,0,25.51,17.73,25.51,29.08,0,2.3-.26,4.08-.38,5.23h-43.37Zm32.91-8.04c.13-7.14-2.93-18.24-15.56-18.24-11.35,0-16.33,10.46-17.22,18.24h32.78Z" fill="#231f20"/>
      <path d="m838.54,410.35c3.32,2.17,9.18,4.46,14.8,4.46,8.16,0,11.99-4.08,11.99-9.18,0-5.36-3.19-8.29-11.48-11.35-11.1-3.95-16.33-10.08-16.33-17.48,0-9.95,8.04-18.11,21.3-18.11,6.25,0,11.74,1.79,15.18,3.83l-2.81,8.16c-2.42-1.53-6.89-3.57-12.63-3.57-6.63,0-10.33,3.83-10.33,8.42,0,5.1,3.7,7.4,11.74,10.46,10.72,4.08,16.2,9.44,16.2,18.62,0,10.84-8.42,18.5-23.09,18.5-6.76,0-13.01-1.66-17.35-4.21l2.81-8.55Z" fill="#231f20"/>
    </g>
    <g>
      <path d="m592.2,229.16h-33.42v31h37.25v9.31h-48.35v-85.98h46.43v9.31h-35.33v27.17h33.42v9.18Z" fill="url(#radial-gradient)"/>
      <path d="m610.06,224.44c0-6.38-.13-11.61-.51-16.71h9.95l.64,10.21h.25c3.06-5.87,10.21-11.61,20.41-11.61,8.55,0,21.81,5.1,21.81,26.28v36.87h-11.23v-35.59c0-9.95-3.7-18.24-14.29-18.24-7.4,0-13.14,5.23-15.05,11.48-.51,1.4-.76,3.32-.76,5.23v37.12h-11.23v-45.03Z" fill="url(#radial-gradient)"/>
      <path d="m680.86,178.9h11.23v38.52h.25c1.79-3.19,4.59-6,8.04-7.91,3.32-1.91,7.27-3.19,11.48-3.19,8.29,0,21.56,5.1,21.56,26.41v36.74h-11.23v-35.46c0-9.95-3.7-18.37-14.29-18.37-7.27,0-13.01,5.1-15.05,11.23-.64,1.53-.76,3.19-.76,5.36v37.25h-11.23v-90.57Z" fill="url(#radial-gradient)"/>
      <path d="m785.85,269.47l-.89-7.78h-.38c-3.44,4.85-10.08,9.18-18.88,9.18-12.5,0-18.88-8.8-18.88-17.73,0-14.92,13.27-23.09,37.12-22.96v-1.28c0-5.1-1.4-14.29-14.03-14.29-5.74,0-11.74,1.79-16.07,4.59l-2.55-7.4c5.1-3.32,12.5-5.49,20.28-5.49,18.88,0,23.47,12.88,23.47,25.26v23.09c0,5.36.25,10.59,1.02,14.8h-10.21Zm-1.66-31.51c-12.25-.26-26.15,1.91-26.15,13.9,0,7.27,4.85,10.71,10.59,10.71,8.04,0,13.14-5.1,14.92-10.33.38-1.15.64-2.42.64-3.57v-10.71Z" fill="url(#radial-gradient)"/>
      <path d="m813.15,224.44c0-6.38-.13-11.61-.51-16.71h9.95l.64,10.21h.25c3.06-5.87,10.21-11.61,20.41-11.61,8.55,0,21.81,5.1,21.81,26.28v36.87h-11.23v-35.59c0-9.95-3.7-18.24-14.29-18.24-7.4,0-13.14,5.23-15.05,11.48-.51,1.4-.76,3.32-.76,5.23v37.12h-11.23v-45.03Z" fill="url(#radial-gradient)"/>
      <path d="m927.96,267.18c-2.93,1.53-9.44,3.57-17.73,3.57-18.62,0-30.74-12.63-30.74-31.51s13.01-32.78,33.17-32.78c6.63,0,12.5,1.66,15.56,3.19l-2.55,8.67c-2.68-1.53-6.89-2.93-13.01-2.93-14.16,0-21.81,10.46-21.81,23.34,0,14.29,9.18,23.09,21.43,23.09,6.38,0,10.59-1.66,13.78-3.06l1.91,8.42Z" fill="url(#radial-gradient)"/>
      <path d="m953.6,190.38c.13,3.83-2.68,6.89-7.14,6.89-3.95,0-6.76-3.06-6.76-6.89s2.93-7.02,7.02-7.02,6.89,3.06,6.89,7.02Zm-12.5,79.09v-61.74h11.23v61.74h-11.23Z" fill="url(#radial-gradient)"/>
      <path d="m970.95,224.44c0-6.38-.13-11.61-.51-16.71h9.95l.64,10.21h.25c3.06-5.87,10.21-11.61,20.41-11.61,8.55,0,21.81,5.1,21.81,26.28v36.87h-11.23v-35.59c0-9.95-3.7-18.24-14.29-18.24-7.4,0-13.14,5.23-15.05,11.48-.51,1.4-.76,3.32-.76,5.23v37.12h-11.23v-45.03Z" fill="url(#radial-gradient)"/>
      <path d="m1094.94,207.73c-.25,4.46-.51,9.44-.51,16.97v35.84c0,14.16-2.81,22.83-8.8,28.19-6,5.61-14.67,7.4-22.45,7.4s-15.56-1.79-20.54-5.1l2.81-8.55c4.08,2.55,10.46,4.85,18.11,4.85,11.48,0,19.9-6,19.9-21.56v-6.89h-.25c-3.44,5.74-10.08,10.33-19.64,10.33-15.31,0-26.28-13.01-26.28-30.11,0-20.92,13.65-32.78,27.81-32.78,10.72,0,16.58,5.61,19.26,10.71h.26l.51-9.31h9.82Zm-11.61,24.36c0-1.91-.13-3.57-.64-5.1-2.04-6.51-7.53-11.86-15.69-11.86-10.71,0-18.37,9.06-18.37,23.34,0,12.12,6.12,22.2,18.24,22.2,6.89,0,13.14-4.34,15.56-11.48.64-1.91.89-4.08.89-6v-11.1Z" fill="url(#radial-gradient)"/>
      <path d="m566.56,421.84l-28.06-85.98h11.99l13.39,42.35c3.7,11.61,6.89,22.07,9.18,32.15h.25c2.42-9.95,6-20.79,9.82-32.02l14.54-42.48h11.86l-30.74,85.98h-12.25Z" fill="url(#radial-gradient)"/>
      <path d="m648.46,421.84l-.89-7.78h-.38c-3.44,4.85-10.08,9.18-18.88,9.18-12.5,0-18.88-8.8-18.88-17.73,0-14.92,13.27-23.09,37.12-22.96v-1.28c0-5.1-1.4-14.29-14.03-14.29-5.74,0-11.74,1.79-16.07,4.59l-2.55-7.4c5.1-3.32,12.5-5.48,20.28-5.48,18.88,0,23.47,12.88,23.47,25.26v23.09c0,5.36.25,10.59,1.02,14.8h-10.21Zm-1.66-31.51c-12.25-.26-26.15,1.91-26.15,13.9,0,7.27,4.85,10.71,10.59,10.71,8.04,0,13.14-5.1,14.92-10.33.38-1.15.64-2.42.64-3.57v-10.71Z" fill="url(#radial-gradient)"/>
      <path d="m675.76,331.26h11.23v90.57h-11.23v-90.57Z" fill="url(#radial-gradient)"/>
      <path d="m757.53,405c0,6.38.13,11.99.51,16.84h-9.95l-.64-10.08h-.25c-2.93,4.97-9.44,11.48-20.41,11.48-9.69,0-21.3-5.36-21.3-27.04v-36.1h11.23v34.19c0,11.74,3.57,19.64,13.78,19.64,7.53,0,12.76-5.23,14.8-10.21.64-1.66,1.02-3.7,1.02-5.74v-37.89h11.23v44.9Z" fill="url(#radial-gradient)"/>
      <path d="m782.41,393.01c.26,15.18,9.95,21.43,21.18,21.43,8.04,0,12.88-1.4,17.09-3.19l1.91,8.04c-3.95,1.79-10.71,3.83-20.54,3.83-19.01,0-30.36-12.5-30.36-31.12s10.97-33.29,28.96-33.29c20.15,0,25.51,17.73,25.51,29.08,0,2.3-.26,4.08-.38,5.23h-43.37Zm32.91-8.04c.13-7.14-2.93-18.24-15.56-18.24-11.35,0-16.33,10.46-17.22,18.24h32.78Z" fill="url(#radial-gradient)"/>
      <path d="m838.54,410.35c3.32,2.17,9.18,4.46,14.8,4.46,8.16,0,11.99-4.08,11.99-9.18,0-5.36-3.19-8.29-11.48-11.35-11.1-3.95-16.33-10.08-16.33-17.48,0-9.95,8.04-18.11,21.3-18.11,6.25,0,11.74,1.79,15.18,3.83l-2.81,8.16c-2.42-1.53-6.89-3.57-12.63-3.57-6.63,0-10.33,3.83-10.33,8.42,0,5.1,3.7,7.4,11.74,10.46,10.72,4.08,16.2,9.44,16.2,18.62,0,10.84-8.42,18.5-23.09,18.5-6.76,0-13.01-1.66-17.35-4.21l2.81-8.55Z" fill="url(#radial-gradient)"/>
    </g>
  </g>
  <path d="m422.45,187.31c-4.84-.98-9.56,2.16-10.54,7-.95,4.7,1.98,9.28,6.59,10.43-2.07,60.56-40.22,112.69-83.41,152.61,1.73-9.51,3.2-19.53,4.33-30.08,3.59-4.82,44.08-63.36,52.96-158.46,3.93-.18,7.07-3.4,7.07-7.38s-3.32-7.41-7.41-7.41-7.41,3.32-7.41,7.41c0,3.55,2.5,6.5,5.83,7.23-7.99,85.04-42.2,141.92-50.65,154.73,1.65-16.77,2.45-34.81,2.15-54.18,3.67-.44,6.52-3.53,6.52-7.32,0-4.09-3.32-7.41-7.41-7.41s-7.41,3.32-7.41,7.41c0,3.73,2.77,6.79,6.37,7.3.55,34.18-2.38,64.22-7.3,90.32-14.46,13.16-29.42,24.97-43.73,35.26-9.08,6.53-18.18,12.67-27.11,18.4-.74-19.89-2.66-38.14-5.34-54.72,12.8-8.84,27.72-17.3,45.14-24.98,1.03,1.74,2.75,3.07,4.89,3.5,4.01.81,7.92-1.79,8.73-5.8.81-4.01-1.79-7.92-5.8-8.73-4.01-.81-7.92,1.79-8.73,5.8-.24,1.19-.15,2.36.16,3.45-17.21,7.59-31.99,15.93-44.73,24.66-2.05-12.27-4.5-23.61-7.18-33.99,18.63-12.68,40.28-22.59,65.17-27.33,1.05,2.8,3.46,5.02,6.61,5.65,4.84.98,9.56-2.16,10.54-7,.98-4.84-2.16-9.56-7-10.54s-9.56,2.16-10.54,7c-.21,1.03-.22,2.05-.08,3.03-25.02,4.82-46.7,14.87-65.17,27.36-1.11-4.2-2.24-8.25-3.41-12.13,53.36-43.26,117.73-107.9,130.9-175.92.09,0,.18.03.27.03,4.09,0,7.41-3.32,7.41-7.41s-3.32-7.41-7.41-7.41-7.41,3.32-7.41,7.41c0,3.33,2.21,6.12,5.24,7.05-13.02,67.18-76.64,131.22-129.62,174.26-1.8-5.87-3.65-11.39-5.5-16.5-.66-1.82-1.32-3.59-1.99-5.34,5.63-4.99,11.57-9.85,17.84-14.52,13.29-9.88,27.64-23.09,36.74-43.55.06-.02.12-.05.18-.07l.52-.21c30.83-10.67,51.55-39.78,51.55-72.43,0-42.25-34.37-76.62-76.62-76.62-6.99,0-13.76.96-20.2,2.72-6.28-3.5-13-6.4-20.1-8.64.09-.5.15-1.02.15-1.55,0-4.69-3.8-8.49-8.49-8.49s-8.49,3.8-8.49,8.49,3.8,8.49,8.49,8.49c3.48,0,6.47-2.1,7.78-5.1,6.51,2.05,12.52,4.59,18.04,7.54-29.93,9.36-52.03,36.61-53.7,69.17-3.54.19-6.35,3.1-6.35,6.68s3.01,6.72,6.72,6.72,6.72-3.01,6.72-6.72c0-3.03-2.01-5.55-4.76-6.4,1.6-32.44,24.11-59.46,54.29-67.87,35.82,20.71,50.43,59.05,51.59,89.95.81,21.5-2.69,38.53-8.58,52.28-24.71,8.76-46.67,19.32-66.18,30.89-10.19-20.26-19.52-33.01-23.55-38.12,20.76-8.94,45.06-15.72,72.55-20.19,1.39,3.15,4.53,5.35,8.19,5.35,4.94,0,8.95-4.01,8.95-8.95s-4.01-8.95-8.95-8.95c-4.61,0-8.41,3.49-8.89,7.97-67.39,10.95-116.12,35.77-141.2,72.05-18.91,27.35-24.13,60.76-15.51,99.3.53,2.39,1.42,4.6,2.27,6.75.22.54.43,1.08.64,1.63,1.87,4.84,5.54,17.62-.51,32.02-1.07,1.77-9.34,16.1-3.84,25.03,3.18,5.16,10.03,7.32,20.32,6.4.02,0,1.03.05,2.12,1.08,1.23,1.16,3.29,4.3,3.29,12.36,0,.38.08,3.75,2.71,5.7,1.49,1.1,3.38,1.46,5.62,1.07l-.56,3.75c-.35,2.32.58,4.66,2.42,6.11l6.24,4.94c1.66,1.31,2.62,3.25,2.66,5.33.11,7.12,1.62,19.9,10.54,25.51,6.42,4.04,15.28,3.51,26.33-1.58,18.06-8.32,26.55-7.18,30.49-4.77,3.92,2.41,4.13,6.61,4.14,6.77v.43s.17.4.17.4c3.91,9.56,13.04,15.55,23.05,15.55,1.35,0,2.72-.11,4.09-.33,33.43-5.46,93.51-24.89,127.86-93.45,4.63.62,9.02-2.44,9.95-7.09.98-4.84-2.16-9.56-7-10.54-4.84-.98-9.56,2.16-10.54,7-.7,3.45.7,6.82,3.3,8.84-32.84,65.24-89.6,84.62-122.43,90.35,7.72-7.12,24.82-24.81,41.36-54.88,2.13-3.87,4.29-8.04,6.45-12.5,28.72-21.28,60.91-52.81,81.82-96.6.34.11.69.21,1.04.28,4.84.98,9.56-2.16,10.54-7,.98-4.84-2.16-9.56-7-10.54-4.84-.98-9.56,2.16-10.54,7-.77,3.83,1.03,7.57,4.21,9.46-20.04,41.95-50.52,72.56-78.27,93.64,9.77-20.89,19.4-47.87,25.77-81.34,17.91-16.28,33.16-32.9,45.57-49.72,25.57-34.66,39.12-70.25,40.38-105.89,4.28.13,8.16-2.83,9.04-7.17.98-4.84-2.16-9.56-7-10.54Zm-162.47,227.08c-13.03,8.3-25.68,15.71-37.39,22.19-1.28-14.24-3.79-28.02-7.12-41.12,10.03-12.01,22.87-24.22,39.3-35.79,2.64,16.58,4.52,34.83,5.21,54.72Zm-1.48,58.82c-16.96,8.56-30.46,13.59-36.74,15.75-.21-.02-.41-.05-.62-.07,2.62-17.09,2.96-33.94,1.65-50.21,11.65-6.44,24.27-13.81,37.27-22.05.53,17.61.1,36.48-1.55,56.59Zm-37.75-35.62c-14.49,7.97-27.44,14.48-37.75,19.4,1.56-5.8,3.58-11.95,6.19-18.35,5.07-12.4,12.86-26.68,24.75-41.32,3.19,12.84,5.6,26.34,6.8,40.27Zm33.67-80.04c-16.46,11.5-29.39,23.64-39.55,35.62-2.83-10.79-6.2-21.09-9.85-30.78,11.85-13.93,25.88-27.44,42.28-38.86,2.66,10.39,5.09,21.74,7.11,34.02Zm-7.59-35.85c-16.85,11.65-30.99,25.28-42.55,38.71-2.17-5.64-4.42-11.06-6.72-16.24,14.52-10.17,30.16-21.73,45.91-34.43,0,0,.01-.01.02-.02,1.14,3.83,2.26,7.83,3.34,11.98Zm-9.64-31.12c1.92,5.3,3.84,11.03,5.7,17.15-.2.16-.4.33-.6.49-15.61,12.58-31.11,24.05-45.52,34.15-1.29-2.88-2.6-5.68-3.91-8.39,11.61-16.33,25.67-32.79,42.61-48.03.58,1.52,1.15,3.06,1.72,4.63Zm-42.03,52.91c-5.34,3.72-10.52,7.26-15.49,10.58,3.64-6.02,7.6-12.15,11.92-18.3,1.2,2.51,2.39,5.08,3.57,7.72Zm-3.25-11.49c-.89-1.82-1.78-3.62-2.66-5.36-5.71-11.24-11.61-21.46-17.22-30.46,14.79-13.07,31.87-25.91,51.53-37.73,3.71,7.53,7.5,16.07,11.18,25.58-17,15.21-31.13,31.65-42.82,47.98Zm108.94-159.87c-.88-23.17-8.4-45.65-21.19-63.31-8.03-11.09-18.07-20.25-29.71-27.25,5.55-1.33,11.34-2.05,17.29-2.05,40.96,0,74.29,33.33,74.29,74.29,0,31.17-19.48,59-48.67,69.74,5.55-13.68,8.79-30.45,8-51.41Zm-11.84,55.32c-8.97,19.12-22.63,31.63-35.3,41.06-6.12,4.55-11.92,9.28-17.43,14.14-3.64-9.35-7.39-17.76-11.05-25.2,18.85-11.2,40.04-21.43,63.79-30.01Zm-90.21-9.4c3.77,4.73,13.29,17.53,23.71,38.29-19.72,11.84-36.88,24.72-51.74,37.82-12.61-19.96-23.53-33.49-27.15-37.82,13.62-15.3,32.18-28.14,55.19-38.29Zm-63.73,49.11c2.22-3.21,4.65-6.33,7.25-9.36,3.77,4.53,14.56,17.95,26.97,37.64-21.72,19.36-38.44,39.13-51.03,56.72-5.2-32.73.42-61.3,16.81-85.01Zm-14.8,95.66c-.55-2.48-1.04-4.93-1.48-7.36,12.6-17.87,29.53-38.15,51.76-58,5.54,8.9,11.36,19,17,30.09,1.03,2.02,2.06,4.11,3.09,6.23-5.41,7.67-10.29,15.3-14.67,22.75-24.28,16.07-43.02,26.91-49.86,30.77-.07-7.62-1.92-13.66-3.12-16.76-.22-.56-.44-1.12-.66-1.67-.82-2.07-1.6-4.02-2.06-6.05Zm19.66,70.54c-2.59-2.44-5.28-2.34-5.64-2.32-8.46.75-13.85-.67-16.03-4.21-3.53-5.73,1.64-16.62,3.93-20.33l.16-.31c2.51-5.92,3.54-11.59,3.73-16.66,5.64-3.16,23.73-13.51,47.72-29.26-19.5,34.14-28.67,64-31.81,75.73-.59-1.02-1.28-1.9-2.06-2.64Zm8.76,17.68c-1.45.45-2.58.46-3.17.04-.66-.48-.84-1.64-.85-1.98,0-4.09-.5-7.5-1.44-10.26,2.45-9.72,11.89-42.98,34.15-80.94,5.9-3.91,12.12-8.12,18.57-12.62,2.36,5.35,4.68,10.95,6.9,16.79-4.05,4.79-7.78,9.54-11.18,14.16-25.81,35.02-38.58,69.2-40.58,74.95-.75-.32-1.59-.39-2.4-.13Zm4.42,11.06c-.54-.43-.81-1.12-.71-1.8l.81-5.4c.13-.89-.08-1.77-.57-2.48.01-.02.03-.05.04-.07h0s.02-.06.04-.13c.03-.07.05-.13.07-.19,1.46-4.24,16.96-47.49,50.8-87.96,3.63,9.73,6.97,20.08,9.76,30.91-12.55,15.2-20.7,30.06-25.96,42.93-2.89,7.06-5.05,13.83-6.68,20.16-10.44,4.94-17.84,8.12-20.9,9.41-.16-.14-.31-.29-.47-.42l-6.24-4.94Zm10.65,13.83c-.04-2.57-.93-5-2.51-6.98,3.25-1.37,9.83-4.23,18.86-8.48-4.47,18.64-4.26,33.06-3.91,38.75-1.49-.32-2.85-.86-4.07-1.63-7.07-4.45-8.28-15.48-8.38-21.67Zm30.31,19.8c-6.25,2.88-11.57,4.13-15.91,3.77-.36-5.37-.72-20.47,4.21-40.09,10.39-4.93,23.64-11.55,38.55-19.73,1.23,15.93.86,32.41-1.72,49.11-6.61-.03-15.01,2.29-25.12,6.94Zm41.15,5.6c-.16-1.63-1.07-6.84-6.22-10.06-1.08-.67-2.28-1.19-3.57-1.6,6.97-2.52,18.68-7.14,32.87-14.24-1.06,12.29-2.59,25.04-4.65,38.24-7.96-.08-15.2-4.81-18.43-12.34Zm63.6-44.17c-18.27,33.27-37.2,51.23-43.19,56.44,0,0-.01,0-.02,0,2.1-13.54,3.65-26.59,4.71-39.18,8.27-4.2,17.31-9.23,26.72-15.15,5.25-3.31,10.79-7.01,16.49-11.11-1.58,3.15-3.16,6.17-4.72,9Zm6.55-12.73c-6.69,4.94-13.19,9.33-19.3,13.18-8.98,5.65-17.62,10.48-25.56,14.55,1.62-20.18,1.99-39.1,1.42-56.76,9.26-5.92,18.71-12.27,28.13-19.05,15.29-11,29.3-22.22,42.02-33.62-6.69,33.93-16.72,61.02-26.72,81.7Z" fill="url(#linear-gradient)"/>
</svg>