<?xml version="1.0" encoding="UTF-8"?>
<svg xmlns="http://www.w3.org/2000/svg" xmlns:xlink="http://www.w3.org/1999/xlink" viewBox="0 0 566.93 566.93">
  <defs>
    <radialGradient id="radial-gradient" cx="271.25" cy="437.86" fx="271.25" fy="437.86" r="100.65" gradientUnits="userSpaceOnUse">
      <stop offset="0" stop-color="#a3dad5"/>
      <stop offset="1" stop-color="#4eaba4"/>
    </radialGradient>
    <linearGradient id="linear-gradient" x1="343.95" y1="162.01" x2="169.53" y2="285.94" gradientUnits="userSpaceOnUse">
      <stop offset=".05" stop-color="#d5e7b3"/>
      <stop offset=".31" stop-color="#a2d9d4"/>
      <stop offset=".52" stop-color="#2a676d"/>
      <stop offset=".75" stop-color="#85cdb2"/>
      <stop offset=".91" stop-color="#4eaba4"/>
    </linearGradient>
    <radialGradient id="radial-gradient-2" cx="218.69" cy="131.35" fx="218.69" fy="131.35" r="44.13" gradientUnits="userSpaceOnUse">
      <stop offset=".03" stop-color="#fff"/>
      <stop offset=".1" stop-color="#fff" stop-opacity=".83"/>
      <stop offset=".19" stop-color="#fff" stop-opacity=".64"/>
      <stop offset=".29" stop-color="#fff" stop-opacity=".47"/>
      <stop offset=".38" stop-color="#fff" stop-opacity=".32"/>
      <stop offset=".49" stop-color="#fff" stop-opacity=".21"/>
      <stop offset=".59" stop-color="#fff" stop-opacity=".11"/>
      <stop offset=".71" stop-color="#fff" stop-opacity=".05"/>
      <stop offset=".83" stop-color="#fff" stop-opacity=".01"/>
      <stop offset="1" stop-color="#fff" stop-opacity="0"/>
    </radialGradient>
    <radialGradient id="radial-gradient-3" cx="237.33" cy="73.13" fx="237.33" fy="73.13" r="44.13" xlink:href="#radial-gradient-2"/>
    <radialGradient id="radial-gradient-4" cx="343.8" cy="110.41" fx="343.8" fy="110.41" r="44.13" xlink:href="#radial-gradient-2"/>
    <radialGradient id="radial-gradient-5" cx="353.77" cy="135.43" fx="353.77" fy="135.43" r="44.13" xlink:href="#radial-gradient-2"/>
    <radialGradient id="radial-gradient-6" cx="374.19" cy="159.14" fx="374.19" fy="159.14" r="44.13" xlink:href="#radial-gradient-2"/>
    <radialGradient id="radial-gradient-7" cx="279.98" cy="156.58" fx="279.98" fy="156.58" xlink:href="#radial-gradient-2"/>
    <radialGradient id="radial-gradient-8" cx="320.24" cy="202.29" fx="320.24" fy="202.29" xlink:href="#radial-gradient-2"/>
    <radialGradient id="radial-gradient-9" cx="307.34" cy="222.62" fx="307.34" fy="222.62" r="44.13" xlink:href="#radial-gradient-2"/>
    <radialGradient id="radial-gradient-10" cx="297.1" cy="248.98" fx="297.1" fy="248.98" r="44.13" xlink:href="#radial-gradient-2"/>
    <radialGradient id="radial-gradient-11" cx="353.77" cy="255.11" fx="353.77" fy="255.11" r="48.73" xlink:href="#radial-gradient-2"/>
    <radialGradient id="radial-gradient-12" cx="350.72" cy="306.67" fx="350.72" fy="306.67" r="44.13" xlink:href="#radial-gradient-2"/>
  </defs>
  <g isolation="isolate">
    <g id="Layer_3" data-name="Layer 3">
      <g>
        <g>
          <g>
            <path d="m191.49,424h-15.97v14.81h17.8v4.45h-23.1v-41.08h22.18v4.45h-16.88v12.98h15.97v4.39Z" fill="#231f20"/>
            <path d="m200.02,421.74c0-3.05-.06-5.55-.24-7.98h4.75l.3,4.88h.12c1.46-2.8,4.88-5.55,9.75-5.55,4.08,0,10.42,2.44,10.42,12.55v17.61h-5.36v-17c0-4.75-1.77-8.71-6.83-8.71-3.54,0-6.28,2.5-7.19,5.48-.24.67-.37,1.58-.37,2.5v17.73h-5.36v-21.51Z" fill="#231f20"/>
            <path d="m233.84,399.99h5.36v18.41h.12c.85-1.52,2.19-2.87,3.84-3.78,1.58-.91,3.47-1.52,5.48-1.52,3.96,0,10.3,2.44,10.3,12.62v17.55h-5.36v-16.94c0-4.75-1.77-8.78-6.83-8.78-3.47,0-6.22,2.44-7.19,5.36-.3.73-.37,1.52-.37,2.56v17.79h-5.36v-43.27Z" fill="#231f20"/>
            <path d="m284,443.26l-.43-3.72h-.18c-1.64,2.32-4.81,4.39-9.02,4.39-5.97,0-9.02-4.21-9.02-8.47,0-7.13,6.34-11.03,17.73-10.97v-.61c0-2.44-.67-6.83-6.7-6.83-2.74,0-5.61.85-7.68,2.19l-1.22-3.53c2.44-1.58,5.97-2.62,9.69-2.62,9.02,0,11.21,6.16,11.21,12.07v11.03c0,2.56.12,5.06.49,7.07h-4.88Zm-.79-15.05c-5.85-.12-12.49.91-12.49,6.64,0,3.47,2.32,5.12,5.06,5.12,3.84,0,6.28-2.44,7.13-4.94.18-.55.3-1.16.3-1.71v-5.12Z" fill="#231f20"/>
            <path d="m297.04,421.74c0-3.05-.06-5.55-.24-7.98h4.75l.3,4.88h.12c1.46-2.8,4.88-5.55,9.75-5.55,4.08,0,10.42,2.44,10.42,12.55v17.61h-5.36v-17c0-4.75-1.77-8.71-6.83-8.71-3.54,0-6.28,2.5-7.19,5.48-.24.67-.37,1.58-.37,2.5v17.73h-5.36v-21.51Z" fill="#231f20"/>
            <path d="m351.89,442.16c-1.4.73-4.51,1.71-8.47,1.71-8.9,0-14.69-6.03-14.69-15.05s6.22-15.66,15.85-15.66c3.17,0,5.97.79,7.44,1.52l-1.22,4.14c-1.28-.73-3.29-1.4-6.22-1.4-6.76,0-10.42,5-10.42,11.15,0,6.83,4.39,11.03,10.24,11.03,3.05,0,5.06-.79,6.58-1.46l.91,4.02Z" fill="#231f20"/>
            <path d="m364.14,405.47c.06,1.83-1.28,3.29-3.41,3.29-1.89,0-3.23-1.46-3.23-3.29s1.4-3.35,3.35-3.35,3.29,1.46,3.29,3.35Zm-5.97,37.79v-29.5h5.36v29.5h-5.36Z" fill="#231f20"/>
            <path d="m372.42,421.74c0-3.05-.06-5.55-.24-7.98h4.75l.3,4.88h.12c1.46-2.8,4.88-5.55,9.75-5.55,4.08,0,10.42,2.44,10.42,12.55v17.61h-5.36v-17c0-4.75-1.77-8.71-6.83-8.71-3.54,0-6.28,2.5-7.19,5.48-.24.67-.37,1.58-.37,2.5v17.73h-5.36v-21.51Z" fill="#231f20"/>
            <path d="m431.66,413.76c-.12,2.13-.24,4.51-.24,8.11v17.12c0,6.76-1.34,10.91-4.21,13.47-2.86,2.68-7.01,3.53-10.73,3.53s-7.44-.85-9.81-2.44l1.34-4.08c1.95,1.22,5,2.32,8.65,2.32,5.49,0,9.51-2.86,9.51-10.3v-3.29h-.12c-1.65,2.74-4.81,4.94-9.39,4.94-7.31,0-12.55-6.22-12.55-14.38,0-10,6.52-15.66,13.29-15.66,5.12,0,7.92,2.68,9.2,5.12h.12l.24-4.45h4.69Zm-5.55,11.64c0-.91-.06-1.71-.3-2.44-.97-3.11-3.6-5.67-7.5-5.67-5.12,0-8.78,4.33-8.78,11.15,0,5.79,2.92,10.6,8.71,10.6,3.29,0,6.28-2.07,7.43-5.48.3-.91.43-1.95.43-2.86v-5.3Z" fill="#231f20"/>
            <path d="m179.24,502.98l-13.41-41.08h5.73l6.4,20.23c1.77,5.55,3.29,10.54,4.39,15.36h.12c1.16-4.75,2.86-9.93,4.69-15.3l6.95-20.29h5.67l-14.69,41.08h-5.85Z" fill="#231f20"/>
            <path d="m218.37,502.98l-.43-3.72h-.18c-1.64,2.32-4.81,4.39-9.02,4.39-5.97,0-9.02-4.21-9.02-8.47,0-7.13,6.34-11.03,17.73-10.97v-.61c0-2.44-.67-6.83-6.7-6.83-2.74,0-5.61.85-7.68,2.19l-1.22-3.54c2.44-1.58,5.97-2.62,9.69-2.62,9.02,0,11.21,6.16,11.21,12.07v11.03c0,2.56.12,5.06.49,7.07h-4.88Zm-.79-15.05c-5.85-.12-12.49.91-12.49,6.64,0,3.47,2.32,5.12,5.06,5.12,3.84,0,6.28-2.44,7.13-4.94.18-.55.3-1.16.3-1.71v-5.12Z" fill="#231f20"/>
            <path d="m231.41,459.71h5.36v43.27h-5.36v-43.27Z" fill="#231f20"/>
            <path d="m270.47,494.94c0,3.05.06,5.73.24,8.04h-4.75l-.3-4.81h-.12c-1.4,2.38-4.51,5.48-9.75,5.48-4.63,0-10.18-2.56-10.18-12.92v-17.25h5.36v16.33c0,5.61,1.71,9.39,6.58,9.39,3.6,0,6.09-2.5,7.07-4.88.3-.79.49-1.77.49-2.74v-18.1h5.36v21.45Z" fill="#231f20"/>
            <path d="m282.35,489.21c.12,7.25,4.75,10.24,10.12,10.24,3.84,0,6.16-.67,8.17-1.52l.92,3.84c-1.89.85-5.12,1.83-9.81,1.83-9.08,0-14.5-5.97-14.5-14.87s5.24-15.91,13.83-15.91c9.63,0,12.19,8.47,12.19,13.9,0,1.1-.12,1.95-.18,2.5h-20.72Zm15.72-3.84c.06-3.41-1.4-8.71-7.43-8.71-5.42,0-7.8,5-8.23,8.71h15.66Z" fill="#231f20"/>
            <path d="m309.17,497.5c1.58,1.04,4.39,2.13,7.07,2.13,3.9,0,5.73-1.95,5.73-4.39,0-2.56-1.52-3.96-5.48-5.42-5.3-1.89-7.8-4.81-7.8-8.35,0-4.75,3.84-8.65,10.18-8.65,2.99,0,5.61.85,7.25,1.83l-1.34,3.9c-1.16-.73-3.29-1.71-6.03-1.71-3.17,0-4.94,1.83-4.94,4.02,0,2.44,1.77,3.53,5.61,5,5.12,1.95,7.74,4.51,7.74,8.9,0,5.18-4.02,8.84-11.03,8.84-3.23,0-6.22-.79-8.29-2.01l1.34-4.08Z" fill="#231f20"/>
          </g>
          <g>
            <path d="m191.49,424h-15.97v14.81h17.8v4.45h-23.1v-41.08h22.18v4.45h-16.88v12.98h15.97v4.39Z" fill="url(#radial-gradient)"/>
            <path d="m200.02,421.74c0-3.05-.06-5.55-.24-7.98h4.75l.3,4.88h.12c1.46-2.8,4.88-5.55,9.75-5.55,4.08,0,10.42,2.44,10.42,12.55v17.61h-5.36v-17c0-4.75-1.77-8.71-6.83-8.71-3.54,0-6.28,2.5-7.19,5.48-.24.67-.37,1.58-.37,2.5v17.73h-5.36v-21.51Z" fill="url(#radial-gradient)"/>
            <path d="m233.84,399.99h5.36v18.41h.12c.85-1.52,2.19-2.87,3.84-3.78,1.58-.91,3.47-1.52,5.48-1.52,3.96,0,10.3,2.44,10.3,12.62v17.55h-5.36v-16.94c0-4.75-1.77-8.78-6.83-8.78-3.47,0-6.22,2.44-7.19,5.36-.3.73-.37,1.52-.37,2.56v17.79h-5.36v-43.27Z" fill="url(#radial-gradient)"/>
            <path d="m284,443.26l-.43-3.72h-.18c-1.64,2.32-4.81,4.39-9.02,4.39-5.97,0-9.02-4.21-9.02-8.47,0-7.13,6.34-11.03,17.73-10.97v-.61c0-2.44-.67-6.83-6.7-6.83-2.74,0-5.61.85-7.68,2.19l-1.22-3.53c2.44-1.58,5.97-2.62,9.69-2.62,9.02,0,11.21,6.16,11.21,12.07v11.03c0,2.56.12,5.06.49,7.07h-4.88Zm-.79-15.05c-5.85-.12-12.49.91-12.49,6.64,0,3.47,2.32,5.12,5.06,5.12,3.84,0,6.28-2.44,7.13-4.94.18-.55.3-1.16.3-1.71v-5.12Z" fill="url(#radial-gradient)"/>
            <path d="m297.04,421.74c0-3.05-.06-5.55-.24-7.98h4.75l.3,4.88h.12c1.46-2.8,4.88-5.55,9.75-5.55,4.08,0,10.42,2.44,10.42,12.55v17.61h-5.36v-17c0-4.75-1.77-8.71-6.83-8.71-3.54,0-6.28,2.5-7.19,5.48-.24.67-.37,1.58-.37,2.5v17.73h-5.36v-21.51Z" fill="url(#radial-gradient)"/>
            <path d="m351.89,442.16c-1.4.73-4.51,1.71-8.47,1.71-8.9,0-14.69-6.03-14.69-15.05s6.22-15.66,15.85-15.66c3.17,0,5.97.79,7.44,1.52l-1.22,4.14c-1.28-.73-3.29-1.4-6.22-1.4-6.76,0-10.42,5-10.42,11.15,0,6.83,4.39,11.03,10.24,11.03,3.05,0,5.06-.79,6.58-1.46l.91,4.02Z" fill="url(#radial-gradient)"/>
            <path d="m364.14,405.47c.06,1.83-1.28,3.29-3.41,3.29-1.89,0-3.23-1.46-3.23-3.29s1.4-3.35,3.35-3.35,3.29,1.46,3.29,3.35Zm-5.97,37.79v-29.5h5.36v29.5h-5.36Z" fill="url(#radial-gradient)"/>
            <path d="m372.42,421.74c0-3.05-.06-5.55-.24-7.98h4.75l.3,4.88h.12c1.46-2.8,4.88-5.55,9.75-5.55,4.08,0,10.42,2.44,10.42,12.55v17.61h-5.36v-17c0-4.75-1.77-8.71-6.83-8.71-3.54,0-6.28,2.5-7.19,5.48-.24.67-.37,1.58-.37,2.5v17.73h-5.36v-21.51Z" fill="url(#radial-gradient)"/>
            <path d="m431.66,413.76c-.12,2.13-.24,4.51-.24,8.11v17.12c0,6.76-1.34,10.91-4.21,13.47-2.86,2.68-7.01,3.53-10.73,3.53s-7.44-.85-9.81-2.44l1.34-4.08c1.95,1.22,5,2.32,8.65,2.32,5.49,0,9.51-2.86,9.51-10.3v-3.29h-.12c-1.65,2.74-4.81,4.94-9.39,4.94-7.31,0-12.55-6.22-12.55-14.38,0-10,6.52-15.66,13.29-15.66,5.12,0,7.92,2.68,9.2,5.12h.12l.24-4.45h4.69Zm-5.55,11.64c0-.91-.06-1.71-.3-2.44-.97-3.11-3.6-5.67-7.5-5.67-5.12,0-8.78,4.33-8.78,11.15,0,5.79,2.92,10.6,8.71,10.6,3.29,0,6.28-2.07,7.43-5.48.3-.91.43-1.95.43-2.86v-5.3Z" fill="url(#radial-gradient)"/>
            <path d="m179.24,502.98l-13.41-41.08h5.73l6.4,20.23c1.77,5.55,3.29,10.54,4.39,15.36h.12c1.16-4.75,2.86-9.93,4.69-15.3l6.95-20.29h5.67l-14.69,41.08h-5.85Z" fill="url(#radial-gradient)"/>
            <path d="m218.37,502.98l-.43-3.72h-.18c-1.64,2.32-4.81,4.39-9.02,4.39-5.97,0-9.02-4.21-9.02-8.47,0-7.13,6.34-11.03,17.73-10.97v-.61c0-2.44-.67-6.83-6.7-6.83-2.74,0-5.61.85-7.68,2.19l-1.22-3.54c2.44-1.58,5.97-2.62,9.69-2.62,9.02,0,11.21,6.16,11.21,12.07v11.03c0,2.56.12,5.06.49,7.07h-4.88Zm-.79-15.05c-5.85-.12-12.49.91-12.49,6.64,0,3.47,2.32,5.12,5.06,5.12,3.84,0,6.28-2.44,7.13-4.94.18-.55.3-1.16.3-1.71v-5.12Z" fill="url(#radial-gradient)"/>
            <path d="m231.41,459.71h5.36v43.27h-5.36v-43.27Z" fill="url(#radial-gradient)"/>
            <path d="m270.47,494.94c0,3.05.06,5.73.24,8.04h-4.75l-.3-4.81h-.12c-1.4,2.38-4.51,5.48-9.75,5.48-4.63,0-10.18-2.56-10.18-12.92v-17.25h5.36v16.33c0,5.61,1.71,9.39,6.58,9.39,3.6,0,6.09-2.5,7.07-4.88.3-.79.49-1.77.49-2.74v-18.1h5.36v21.45Z" fill="url(#radial-gradient)"/>
            <path d="m282.35,489.21c.12,7.25,4.75,10.24,10.12,10.24,3.84,0,6.16-.67,8.17-1.52l.92,3.84c-1.89.85-5.12,1.83-9.81,1.83-9.08,0-14.5-5.97-14.5-14.87s5.24-15.91,13.83-15.91c9.63,0,12.19,8.47,12.19,13.9,0,1.1-.12,1.95-.18,2.5h-20.72Zm15.72-3.84c.06-3.41-1.4-8.71-7.43-8.71-5.42,0-7.8,5-8.23,8.71h15.66Z" fill="url(#radial-gradient)"/>
            <path d="m309.17,497.5c1.58,1.04,4.39,2.13,7.07,2.13,3.9,0,5.73-1.95,5.73-4.39,0-2.56-1.52-3.96-5.48-5.42-5.3-1.89-7.8-4.81-7.8-8.35,0-4.75,3.84-8.65,10.18-8.65,2.99,0,5.61.85,7.25,1.83l-1.34,3.9c-1.16-.73-3.29-1.71-6.03-1.71-3.17,0-4.94,1.83-4.94,4.02,0,2.44,1.77,3.53,5.61,5,5.12,1.95,7.74,4.51,7.74,8.9,0,5.18-4.02,8.84-11.03,8.84-3.23,0-6.22-.79-8.29-2.01l1.34-4.08Z" fill="url(#radial-gradient)"/>
          </g>
        </g>
        <g>
          <path d="m374.71,152.37c-3.26-.66-6.44,1.45-7.09,4.71-.64,3.16,1.33,6.24,4.43,7.02-1.39,40.76-27.07,75.85-56.14,102.71,1.16-6.4,2.15-13.14,2.91-20.24,2.41-3.24,29.67-42.65,35.64-106.65,2.65-.12,4.76-2.29,4.76-4.96s-2.23-4.99-4.99-4.99-4.99,2.23-4.99,4.99c0,2.39,1.68,4.38,3.92,4.87-5.38,57.23-28.4,95.52-34.09,104.14,1.11-11.28,1.65-23.43,1.44-36.47,2.47-.3,4.39-2.38,4.39-4.93,0-2.75-2.23-4.99-4.99-4.99s-4.99,2.23-4.99,4.99c0,2.51,1.87,4.57,4.28,4.92.37,23.01-1.6,43.23-4.91,60.79-9.74,8.86-19.8,16.8-29.43,23.73-6.11,4.4-12.23,8.53-18.25,12.39-.49-13.39-1.79-25.67-3.59-36.83,8.62-5.95,18.65-11.64,30.38-16.81.69,1.17,1.85,2.06,3.29,2.35,2.7.54,5.33-1.2,5.87-3.9.54-2.7-1.2-5.33-3.9-5.87-2.7-.54-5.33,1.2-5.87,3.9-.16.8-.1,1.59.11,2.33-11.58,5.11-21.53,10.72-30.1,16.59-1.38-8.26-3.03-15.89-4.83-22.88,12.54-8.53,27.11-15.21,43.86-18.39.7,1.89,2.33,3.38,4.45,3.8,3.26.66,6.44-1.45,7.09-4.71.66-3.26-1.45-6.44-4.71-7.09s-6.44,1.45-7.09,4.71c-.14.69-.15,1.38-.05,2.04-16.84,3.24-31.43,10.01-43.86,18.41-.74-2.82-1.51-5.55-2.29-8.16,35.92-29.12,79.24-72.62,88.1-118.4.06,0,.12.02.18.02,2.75,0,4.99-2.23,4.99-4.99s-2.23-4.99-4.99-4.99-4.99,2.23-4.99,4.99c0,2.24,1.49,4.12,3.53,4.74-8.76,45.22-51.58,88.32-87.24,117.29-1.21-3.95-2.45-7.66-3.7-11.1-.44-1.22-.89-2.42-1.34-3.59,3.79-3.36,7.79-6.63,12.01-9.77,8.94-6.65,18.6-15.54,24.73-29.31.04-.01.08-.03.12-.05l.35-.14c20.75-7.18,34.69-26.77,34.69-48.75,0-28.44-23.13-51.57-51.57-51.57-4.7,0-9.26.65-13.59,1.83-4.23-2.36-8.75-4.3-13.53-5.82.06-.34.1-.68.1-1.04,0-3.16-2.56-5.72-5.72-5.72s-5.72,2.56-5.72,5.72,2.56,5.72,5.72,5.72c2.34,0,4.36-1.41,5.24-3.43,4.38,1.38,8.42,3.09,12.14,5.08-20.14,6.3-35.02,24.64-36.14,46.56-2.38.13-4.28,2.08-4.28,4.5s2.02,4.52,4.52,4.52,4.52-2.02,4.52-4.52c0-2.04-1.36-3.74-3.21-4.31,1.07-21.83,16.22-40.02,36.54-45.68,24.11,13.94,33.94,39.75,34.72,60.54.55,14.47-1.81,25.93-5.77,35.19-16.63,5.9-31.41,13-44.54,20.79-6.86-13.64-13.14-22.22-15.85-25.65,13.97-6.02,30.33-10.58,48.83-13.59.93,2.12,3.05,3.6,5.51,3.6,3.33,0,6.02-2.7,6.02-6.02s-2.7-6.02-6.02-6.02c-3.1,0-5.66,2.35-5.99,5.37-45.36,7.37-78.15,24.08-95.03,48.49-12.73,18.41-16.24,40.9-10.44,66.83.36,1.61.95,3.1,1.53,4.54.15.36.29.73.43,1.09,1.26,3.26,3.73,11.86-.35,21.55-.72,1.19-6.29,10.83-2.58,16.84,2.14,3.47,6.75,4.92,13.68,4.31.01,0,.69.04,1.43.73.83.78,2.22,2.89,2.22,8.32,0,.25.05,2.53,1.83,3.83,1,.74,2.27.98,3.78.72l-.38,2.52c-.23,1.56.39,3.14,1.63,4.12l4.2,3.33c1.11.88,1.77,2.19,1.79,3.59.07,4.79,1.09,13.39,7.09,17.17,4.32,2.72,10.28,2.36,17.72-1.06,12.15-5.6,17.87-4.83,20.52-3.21,2.64,1.62,2.78,4.45,2.79,4.56v.29s.12.27.12.27c2.63,6.43,8.78,10.47,15.52,10.47.91,0,1.83-.07,2.75-.22,22.5-3.68,62.94-16.75,86.06-62.9,3.12.42,6.07-1.64,6.7-4.77.66-3.26-1.45-6.44-4.71-7.09-3.26-.66-6.44,1.45-7.09,4.71-.47,2.32.47,4.59,2.22,5.95-22.1,43.91-60.31,56.96-82.4,60.81,5.19-4.79,16.71-16.7,27.84-36.94,1.43-2.6,2.89-5.41,4.34-8.41,19.33-14.33,40.99-35.54,55.07-65.02.23.08.46.14.7.19,3.26.66,6.44-1.45,7.09-4.71.66-3.26-1.45-6.44-4.71-7.09-3.26-.66-6.44,1.45-7.09,4.71-.52,2.58.69,5.09,2.83,6.36-13.49,28.23-34,48.84-52.68,63.02,6.58-14.06,13.05-32.22,17.34-54.75,12.05-10.96,22.32-22.14,30.67-33.46,17.21-23.33,26.33-47.28,27.17-71.27,2.88.09,5.49-1.9,6.08-4.82.66-3.26-1.45-6.44-4.71-7.09Zm-109.35,152.83c-8.77,5.58-17.29,10.58-25.16,14.94-.86-9.58-2.55-18.86-4.79-27.67,6.75-8.09,15.39-16.3,26.45-24.09,1.78,11.16,3.04,23.44,3.5,36.83Zm-1,39.59c-11.41,5.76-20.5,9.15-24.73,10.6-.14-.01-.27-.04-.42-.05,1.76-11.5,2-22.84,1.11-33.8,7.84-4.33,16.33-9.29,25.08-14.84.35,11.85.07,24.55-1.05,38.08Zm-25.4-23.97c-9.75,5.36-18.47,9.74-25.41,13.06,1.05-3.9,2.41-8.04,4.17-12.35,3.41-8.35,8.66-17.96,16.66-27.81,2.15,8.64,3.77,17.73,4.58,27.1Zm22.66-53.87c-11.08,7.74-19.78,15.91-26.62,23.97-1.91-7.26-4.17-14.2-6.63-20.72,7.97-9.37,17.42-18.47,28.46-26.15,1.79,7,3.43,14.63,4.79,22.9Zm-5.11-24.13c-11.34,7.84-20.86,17.02-28.64,26.05-1.46-3.8-2.98-7.44-4.52-10.93,9.77-6.84,20.3-14.63,30.9-23.17,0,0,0,0,.01-.01.77,2.58,1.52,5.27,2.25,8.06Zm-6.49-20.94c1.29,3.57,2.58,7.42,3.84,11.54-.14.11-.27.22-.41.33-10.51,8.47-20.94,16.19-30.63,22.98-.87-1.94-1.75-3.82-2.63-5.65,7.82-10.99,17.28-22.07,28.68-32.32.39,1.02.77,2.06,1.16,3.12Zm-28.29,35.61c-3.59,2.51-7.08,4.88-10.43,7.12,2.45-4.05,5.12-8.18,8.02-12.32.8,1.69,1.61,3.42,2.41,5.2Zm-2.19-7.73c-.6-1.23-1.2-2.44-1.79-3.61-3.84-7.56-7.81-14.44-11.59-20.5,9.96-8.79,21.45-17.44,34.68-25.4,2.49,5.07,5.05,10.81,7.52,17.22-11.44,10.24-20.95,21.3-28.82,32.29Zm73.32-107.6c-.59-15.59-5.66-30.73-14.26-42.61-5.41-7.46-12.16-13.63-20-18.34,3.74-.89,7.63-1.38,11.64-1.38,27.57,0,50,22.43,50,50,0,20.98-13.11,39.71-32.75,46.94,3.74-9.2,5.92-20.5,5.38-34.6Zm-7.97,37.24c-6.04,12.87-15.23,21.29-23.76,27.64-4.12,3.06-8.02,6.25-11.73,9.52-2.45-6.29-4.97-11.95-7.44-16.96,12.69-7.54,26.95-14.42,42.93-20.2Zm-60.72-6.32c2.54,3.18,8.94,11.8,15.96,25.77-13.28,7.97-24.82,16.64-34.82,25.46-8.49-13.44-15.84-22.54-18.28-25.45,9.16-10.29,21.66-18.94,37.14-25.77Zm-42.89,33.05c1.5-2.16,3.13-4.26,4.88-6.3,2.54,3.05,9.8,12.08,18.15,25.33-14.62,13.03-25.87,26.34-34.35,38.18-3.5-22.03.28-41.26,11.31-57.21Zm-9.96,64.38c-.37-1.67-.7-3.32-.99-4.96,8.48-12.02,19.87-25.67,34.84-39.04,3.73,5.99,7.65,12.79,11.44,20.25.69,1.36,1.38,2.76,2.08,4.19-3.64,5.16-6.92,10.3-9.88,15.31-16.34,10.82-28.96,18.11-33.56,20.71-.05-5.13-1.29-9.19-2.1-11.28-.15-.38-.29-.75-.44-1.13-.55-1.39-1.08-2.71-1.38-4.07Zm13.23,47.48c-1.75-1.64-3.56-1.58-3.8-1.56-5.69.5-9.32-.45-10.79-2.83-2.38-3.85,1.1-11.18,2.64-13.68l.11-.21c1.69-3.98,2.38-7.8,2.51-11.22,3.8-2.13,15.97-9.09,32.12-19.69-13.12,22.98-19.29,43.07-21.41,50.97-.4-.69-.86-1.28-1.39-1.77Zm5.9,11.9c-.98.3-1.74.31-2.13.03-.45-.32-.56-1.1-.57-1.33,0-2.75-.33-5.05-.97-6.9,1.65-6.54,8-28.93,22.98-54.48,3.97-2.63,8.16-5.47,12.5-8.49,1.59,3.6,3.15,7.37,4.64,11.3-2.73,3.22-5.24,6.42-7.53,9.53-17.37,23.57-25.96,46.57-27.31,50.44-.51-.21-1.07-.26-1.61-.09Zm2.98,7.45c-.36-.29-.55-.75-.48-1.21l.54-3.63c.09-.6-.05-1.19-.38-1.67,0-.02.02-.03.02-.05h0s.01-.04.03-.09c.02-.05.03-.09.04-.13.98-2.86,11.41-31.97,34.19-59.2,2.44,6.55,4.69,13.51,6.57,20.8-8.45,10.23-13.93,20.23-17.47,28.89-1.94,4.75-3.4,9.31-4.49,13.57-7.03,3.33-12.01,5.47-14.07,6.33-.11-.09-.21-.19-.32-.28l-4.2-3.33Zm7.17,9.31c-.03-1.73-.63-3.37-1.69-4.7,2.19-.92,6.62-2.85,12.7-5.71-3.01,12.54-2.86,22.25-2.63,26.08-1-.22-1.92-.58-2.74-1.09-4.76-3-5.58-10.42-5.64-14.58Zm20.4,13.33c-4.21,1.94-7.79,2.78-10.71,2.54-.24-3.61-.48-13.78,2.83-26.98,6.99-3.32,15.91-7.77,25.95-13.28.83,10.72.58,21.81-1.16,33.05-4.45-.02-10.1,1.54-16.91,4.67Zm27.7,3.77c-.11-1.1-.72-4.61-4.19-6.77-.73-.45-1.53-.8-2.4-1.07,4.69-1.7,12.57-4.81,22.12-9.58-.72,8.27-1.74,16.85-3.13,25.73-5.35-.06-10.23-3.24-12.4-8.31Zm42.8-29.73c-12.3,22.39-25.04,34.48-29.07,37.98,0,0,0,0-.01,0,1.42-9.11,2.46-17.9,3.17-26.37,5.56-2.83,11.65-6.21,17.99-10.2,3.54-2.23,7.26-4.72,11.1-7.48-1.07,2.12-2.13,4.15-3.17,6.06Zm4.41-8.57c-4.5,3.33-8.88,6.28-12.99,8.87-6.04,3.8-11.86,7.05-17.2,9.8,1.09-13.58,1.34-26.32.96-38.2,6.23-3.98,12.59-8.26,18.94-12.82,10.29-7.4,19.72-14.96,28.28-22.63-4.5,22.84-11.25,41.07-17.98,54.99Z" fill="url(#linear-gradient)"/>
          <g opacity=".4">
            <circle cx="218.69" cy="131.35" r="48.73" fill="url(#radial-gradient-2)" mix-blend-mode="color-dodge"/>
            <circle cx="237.33" cy="73.13" r="48.73" fill="url(#radial-gradient-3)" mix-blend-mode="color-dodge"/>
            <circle cx="343.8" cy="110.41" r="48.73" fill="url(#radial-gradient-4)" mix-blend-mode="color-dodge"/>
            <circle cx="353.77" cy="135.43" r="48.73" fill="url(#radial-gradient-5)" mix-blend-mode="color-dodge"/>
            <circle cx="374.19" cy="159.14" r="48.73" fill="url(#radial-gradient-6)" mix-blend-mode="color-dodge"/>
            <circle cx="279.98" cy="156.58" r="48.73" fill="url(#radial-gradient-7)" mix-blend-mode="color-dodge"/>
            <circle cx="320.24" cy="202.29" r="48.73" fill="url(#radial-gradient-8)" mix-blend-mode="color-dodge"/>
            <circle cx="307.34" cy="222.62" r="48.73" fill="url(#radial-gradient-9)" mix-blend-mode="color-dodge"/>
            <circle cx="297.1" cy="248.98" r="48.73" fill="url(#radial-gradient-10)" mix-blend-mode="color-dodge"/>
            <circle cx="353.77" cy="255.11" r="48.73" fill="url(#radial-gradient-11)" mix-blend-mode="color-dodge"/>
            <circle cx="350.72" cy="306.67" r="48.73" fill="url(#radial-gradient-12)" mix-blend-mode="color-dodge"/>
          </g>
        </g>
      </g>
    </g>
  </g>
</svg>