<?xml version="1.0" encoding="UTF-8"?>
<svg xmlns="http://www.w3.org/2000/svg" xmlns:xlink="http://www.w3.org/1999/xlink" viewBox="0 0 566.93 566.93">
  <defs>
    <linearGradient id="linear-gradient" x1="364.04" y1="228.8" x2="103.52" y2="413.9" gradientUnits="userSpaceOnUse">
      <stop offset=".05" stop-color="#d5e7b3"/>
      <stop offset=".31" stop-color="#a2d9d4"/>
      <stop offset=".52" stop-color="#2a676d"/>
      <stop offset=".75" stop-color="#85cdb2"/>
      <stop offset=".91" stop-color="#4eaba4"/>
    </linearGradient>
    <radialGradient id="radial-gradient" cx="176.96" cy="182.99" fx="176.96" fy="182.99" r="65.91" gradientUnits="userSpaceOnUse">
      <stop offset=".03" stop-color="#fff"/>
      <stop offset=".1" stop-color="#fff" stop-opacity=".83"/>
      <stop offset=".19" stop-color="#fff" stop-opacity=".64"/>
      <stop offset=".29" stop-color="#fff" stop-opacity=".47"/>
      <stop offset=".38" stop-color="#fff" stop-opacity=".32"/>
      <stop offset=".49" stop-color="#fff" stop-opacity=".21"/>
      <stop offset=".59" stop-color="#fff" stop-opacity=".11"/>
      <stop offset=".71" stop-color="#fff" stop-opacity=".05"/>
      <stop offset=".83" stop-color="#fff" stop-opacity=".01"/>
      <stop offset="1" stop-color="#fff" stop-opacity="0"/>
    </radialGradient>
    <radialGradient id="radial-gradient-2" cx="204.8" cy="96.04" fx="204.8" fy="96.04" r="65.91" xlink:href="#radial-gradient"/>
    <radialGradient id="radial-gradient-3" cx="363.83" cy="151.72" fx="363.83" fy="151.72" xlink:href="#radial-gradient"/>
    <radialGradient id="radial-gradient-4" cx="378.71" cy="189.09" fx="378.71" fy="189.09" r="65.91" xlink:href="#radial-gradient"/>
    <radialGradient id="radial-gradient-5" cx="409.22" cy="224.5" fx="409.22" fy="224.5" r="65.91" xlink:href="#radial-gradient"/>
    <radialGradient id="radial-gradient-6" cx="268.5" cy="220.69" fx="268.5" fy="220.69" r="65.91" xlink:href="#radial-gradient"/>
    <radialGradient id="radial-gradient-7" cx="328.64" cy="288.95" fx="328.64" fy="288.95" r="65.91" xlink:href="#radial-gradient"/>
    <radialGradient id="radial-gradient-8" cx="309.36" cy="319.32" fx="309.36" fy="319.32" r="65.91" xlink:href="#radial-gradient"/>
    <radialGradient id="radial-gradient-9" cx="294.07" cy="358.7" fx="294.07" fy="358.7" r="65.91" xlink:href="#radial-gradient"/>
    <radialGradient id="radial-gradient-10" cx="378.71" cy="367.85" fx="378.71" fy="367.85" r="72.78" xlink:href="#radial-gradient"/>
    <radialGradient id="radial-gradient-11" cx="374.16" cy="444.86" fx="374.16" fy="444.86" r="65.91" xlink:href="#radial-gradient"/>
  </defs>
  <g isolation="isolate">
    <g id="Layer_3" data-name="Layer 3">
      <g>
        <path d="m410,214.39c-4.87-.98-9.61,2.17-10.6,7.04-.95,4.73,1.99,9.32,6.62,10.49-2.08,60.89-40.43,113.29-83.85,153.42,1.74-9.57,3.22-19.63,4.35-30.24,3.61-4.85,44.32-63.7,53.24-159.3,3.95-.18,7.11-3.42,7.11-7.41s-3.33-7.45-7.45-7.45-7.45,3.33-7.45,7.45c0,3.57,2.51,6.54,5.86,7.27-8.03,85.49-42.42,142.68-50.92,155.55,1.66-16.85,2.47-34.99,2.16-54.47,3.69-.44,6.56-3.55,6.56-7.36,0-4.11-3.33-7.45-7.45-7.45s-7.45,3.33-7.45,7.45c0,3.75,2.79,6.83,6.4,7.34.55,34.37-2.39,64.57-7.33,90.8-14.54,13.23-29.58,25.1-43.96,35.45-9.13,6.57-18.27,12.74-27.26,18.5-.74-20-2.67-38.35-5.37-55.01,12.87-8.89,27.86-17.39,45.37-25.11,1.04,1.75,2.76,3.08,4.91,3.52,4.03.81,7.96-1.8,8.77-5.83.81-4.03-1.8-7.96-5.83-8.77-4.03-.81-7.96,1.8-8.77,5.83-.24,1.2-.15,2.37.16,3.47-17.3,7.63-32.16,16.01-44.96,24.79-2.06-12.34-4.52-23.73-7.22-34.17,18.73-12.74,40.49-22.71,65.51-27.48,1.05,2.82,3.48,5.04,6.64,5.68,4.87.98,9.61-2.17,10.6-7.04.98-4.87-2.17-9.61-7.04-10.6-4.87-.98-9.61,2.17-10.6,7.04-.21,1.03-.22,2.06-.08,3.05-25.15,4.85-46.94,14.95-65.52,27.5-1.11-4.22-2.25-8.29-3.42-12.19,53.65-43.49,118.36-108.47,131.6-176.85.09,0,.18.03.27.03,4.11,0,7.45-3.33,7.45-7.45s-3.33-7.45-7.45-7.45-7.45,3.33-7.45,7.45c0,3.35,2.22,6.15,5.27,7.09-13.09,67.54-77.04,131.91-130.3,175.19-1.81-5.9-3.67-11.45-5.53-16.59-.66-1.83-1.33-3.61-2-5.37,5.66-5.02,11.63-9.9,17.94-14.59,13.36-9.93,27.79-23.21,36.93-43.78.06-.02.12-.05.19-.07l.52-.21c31-10.73,51.82-39.99,51.82-72.81,0-42.47-34.55-77.03-77.03-77.03-7.03,0-13.83.96-20.3,2.73-6.31-3.52-13.07-6.43-20.21-8.69.09-.5.15-1.02.15-1.55,0-4.71-3.82-8.54-8.54-8.54s-8.54,3.82-8.54,8.54,3.82,8.54,8.54,8.54c3.5,0,6.51-2.11,7.82-5.13,6.54,2.06,12.58,4.61,18.14,7.58-30.09,9.4-52.3,36.8-53.99,69.54-3.56.2-6.39,3.11-6.39,6.72s3.02,6.76,6.76,6.76,6.76-3.02,6.76-6.76c0-3.04-2.02-5.58-4.79-6.43,1.61-32.61,24.23-59.77,54.58-68.23,36.01,20.82,50.69,59.37,51.87,90.43.82,21.62-2.7,38.73-8.62,52.56-24.84,8.81-46.92,19.42-66.53,31.05-10.24-20.37-19.62-33.19-23.68-38.32,20.87-8.99,45.3-15.8,72.93-20.3,1.39,3.17,4.55,5.38,8.23,5.38,4.97,0,9-4.03,9-9s-4.03-9-9-9c-4.64,0-8.45,3.51-8.94,8.01-67.75,11.01-116.73,35.96-141.95,72.43-19.01,27.5-24.26,61.09-15.59,99.83.54,2.4,1.42,4.63,2.28,6.79.22.54.43,1.09.64,1.64,1.88,4.86,5.57,17.71-.52,32.19-1.07,1.78-9.39,16.18-3.86,25.16,3.19,5.18,10.09,7.35,20.43,6.43.02,0,1.03.05,2.14,1.09,1.24,1.16,3.31,4.32,3.31,12.43,0,.38.08,3.77,2.73,5.73,1.5,1.11,3.4,1.47,5.65,1.08l-.57,3.77c-.35,2.33.58,4.68,2.43,6.15l6.27,4.97c1.67,1.32,2.64,3.27,2.67,5.36.11,7.16,1.63,20,10.6,25.65,6.46,4.06,15.36,3.53,26.47-1.59,18.16-8.36,26.69-7.22,30.65-4.79,3.94,2.42,4.15,6.65,4.16,6.81v.43s.17.4.17.4c3.93,9.61,13.11,15.63,23.18,15.63,1.36,0,2.73-.11,4.11-.33,33.61-5.49,94.01-25.02,128.54-93.95,4.66.63,9.07-2.46,10.01-7.13.98-4.87-2.17-9.61-7.04-10.6-4.87-.98-9.61,2.17-10.6,7.04-.7,3.47.7,6.86,3.32,8.89-33.01,65.58-90.08,85.07-123.08,90.83,7.76-7.16,24.95-24.94,41.58-55.17,2.14-3.89,4.31-8.08,6.48-12.56,28.88-21.4,61.23-53.09,82.25-97.11.34.11.69.21,1.05.28,4.87.98,9.61-2.17,10.6-7.04.98-4.87-2.17-9.61-7.04-10.6-4.87-.98-9.61,2.17-10.6,7.04-.78,3.85,1.03,7.61,4.23,9.51-20.14,42.17-50.79,72.95-78.68,94.14,9.83-21,19.5-48.13,25.9-81.77,18-16.36,33.33-33.07,45.81-49.98,25.7-34.84,39.33-70.62,40.59-106.45,4.31.13,8.21-2.84,9.09-7.21.98-4.87-2.17-9.61-7.04-10.6Zm-163.33,228.29c-13.1,8.34-25.82,15.8-37.58,22.31-1.29-14.32-3.81-28.17-7.16-41.33,10.08-12.08,22.99-24.35,39.51-35.98,2.66,16.67,4.54,35.02,5.23,55.01Zm-1.49,59.14c-17.05,8.6-30.62,13.66-36.94,15.83-.21-.02-.41-.05-.62-.07,2.63-17.18,2.98-34.12,1.66-50.48,11.72-6.47,24.39-13.88,37.47-22.17.53,17.7.1,36.67-1.56,56.89Zm-37.95-35.8c-14.56,8.01-27.59,14.55-37.95,19.5,1.57-5.83,3.59-12.02,6.22-18.45,5.1-12.47,12.93-26.83,24.89-41.54,3.21,12.91,5.63,26.48,6.84,40.48Zm33.85-80.46c-16.55,11.56-29.55,23.76-39.76,35.81-2.85-10.85-6.23-21.2-9.9-30.94,11.91-14,26.02-27.59,42.5-39.06,2.68,10.45,5.12,21.86,7.15,34.2Zm-7.63-36.04c-16.94,11.71-31.16,25.42-42.77,38.92-2.18-5.67-4.45-11.12-6.76-16.33,14.6-10.22,30.32-21.85,46.15-34.61,0,0,.01-.01.02-.02,1.15,3.85,2.27,7.87,3.36,12.04Zm-9.69-31.28c1.93,5.33,3.86,11.09,5.73,17.24-.2.16-.41.33-.61.49-15.69,12.65-31.27,24.18-45.76,34.33-1.3-2.89-2.61-5.71-3.93-8.44,11.67-16.41,25.81-32.97,42.83-48.28.58,1.53,1.16,3.08,1.73,4.66Zm-42.25,53.19c-5.37,3.74-10.57,7.29-15.57,10.64,3.66-6.06,7.64-12.21,11.98-18.4,1.2,2.52,2.4,5.1,3.59,7.76Zm-3.27-11.55c-.89-1.83-1.79-3.64-2.68-5.39-5.74-11.3-11.67-21.58-17.32-30.62,14.87-13.13,32.04-26.05,51.81-37.93,3.73,7.57,7.54,16.15,11.24,25.72-17.09,15.29-31.29,31.82-43.05,48.23Zm109.52-160.72c-.88-23.29-8.45-45.9-21.31-63.64-8.07-11.14-18.17-20.36-29.87-27.4,5.58-1.34,11.4-2.06,17.38-2.06,41.18,0,74.68,33.5,74.68,74.68,0,31.33-19.58,59.31-48.92,70.11,5.58-13.75,8.84-30.61,8.04-51.69Zm-11.9,55.62c-9.02,19.22-22.75,31.8-35.49,41.28-6.15,4.58-11.98,9.33-17.53,14.22-3.66-9.4-7.43-17.86-11.11-25.33,18.95-11.26,40.26-21.54,64.13-30.17Zm-90.69-9.45c3.79,4.75,13.36,17.63,23.83,38.49-19.83,11.91-37.07,24.85-52.01,38.02-12.67-20.07-23.65-33.66-27.3-38.02,13.69-15.38,32.35-28.29,55.48-38.49Zm-64.06,49.37c2.23-3.23,4.67-6.36,7.29-9.41,3.79,4.55,14.63,18.04,27.12,37.84-21.83,19.46-38.65,39.34-51.3,57.02-5.22-32.91.42-61.62,16.9-85.46Zm-14.88,96.17c-.56-2.49-1.05-4.96-1.48-7.4,12.66-17.96,29.69-38.35,52.03-58.31,5.57,8.95,11.42,19.1,17.09,30.25,1.03,2.03,2.07,4.13,3.1,6.26-5.44,7.71-10.34,15.38-14.75,22.87-24.41,16.16-43.25,27.05-50.12,30.93-.07-7.66-1.93-13.73-3.13-16.84-.22-.56-.44-1.12-.66-1.68-.83-2.08-1.61-4.04-2.07-6.08Zm19.76,70.91c-2.61-2.45-5.31-2.36-5.67-2.33-8.5.75-13.92-.67-16.12-4.23-3.55-5.76,1.65-16.71,3.95-20.44l.16-.31c2.53-5.95,3.55-11.65,3.75-16.75,5.67-3.18,23.85-13.58,47.98-29.42-19.6,34.33-28.82,64.34-31.98,76.13-.59-1.03-1.28-1.91-2.07-2.65Zm8.81,17.77c-1.46.45-2.59.47-3.18.04-.67-.48-.84-1.65-.85-1.99,0-4.11-.5-7.54-1.45-10.31,2.47-9.77,11.95-43.21,34.33-81.37,5.93-3.93,12.18-8.17,18.67-12.69,2.38,5.38,4.71,11.01,6.94,16.88-4.07,4.82-7.83,9.6-11.24,14.23-25.94,35.2-38.78,69.57-40.79,75.34-.76-.32-1.6-.39-2.41-.13Zm4.45,11.12c-.54-.43-.82-1.12-.72-1.81l.81-5.42c.13-.89-.08-1.77-.57-2.5.01-.02.03-.05.04-.07h0s.02-.06.05-.13c.03-.07.05-.14.07-.2,1.46-4.27,17.05-47.75,51.07-88.43,3.65,9.79,7.01,20.18,9.81,31.07-12.62,15.28-20.81,30.22-26.1,43.16-2.9,7.09-5.08,13.9-6.71,20.26-10.5,4.97-17.94,8.17-21.01,9.45-.16-.14-.31-.29-.48-.42l-6.27-4.97Zm10.71,13.9c-.04-2.58-.94-5.03-2.52-7.02,3.27-1.38,9.89-4.25,18.96-8.52-4.5,18.74-4.28,33.24-3.93,38.95-1.5-.32-2.87-.86-4.09-1.63-7.11-4.47-8.33-15.57-8.42-21.78Zm30.47,19.91c-6.29,2.9-11.63,4.15-16,3.79-.36-5.4-.72-20.58,4.23-40.3,10.44-4.96,23.77-11.61,38.76-19.83,1.24,16.02.86,32.58-1.73,49.37-6.65-.03-15.09,2.3-25.26,6.98Zm41.37,5.63c-.16-1.64-1.08-6.88-6.25-10.11-1.09-.68-2.29-1.2-3.59-1.6,7.01-2.53,18.78-7.18,33.04-14.32-1.07,12.36-2.61,25.17-4.68,38.44-8-.08-15.28-4.84-18.53-12.41Zm63.93-44.4c-18.37,33.44-37.4,51.5-43.42,56.74,0,0-.01,0-.02,0,2.12-13.61,3.67-26.74,4.74-39.39,8.31-4.23,17.41-9.28,26.87-15.23,5.28-3.32,10.85-7.04,16.58-11.17-1.59,3.17-3.18,6.2-4.74,9.05Zm6.59-12.8c-6.73,4.97-13.26,9.38-19.4,13.25-9.02,5.68-17.71,10.53-25.7,14.63,1.63-20.28,2-39.31,1.43-57.06,9.31-5.95,18.81-12.34,28.28-19.16,15.37-11.06,29.46-22.34,42.25-33.8-6.72,34.11-16.81,61.34-26.86,82.14Z" fill="url(#linear-gradient)"/>
        <g opacity=".4">
          <circle cx="176.96" cy="182.99" r="72.78" fill="url(#radial-gradient)" mix-blend-mode="color-dodge"/>
          <circle cx="204.8" cy="96.04" r="72.78" fill="url(#radial-gradient-2)" mix-blend-mode="color-dodge"/>
          <circle cx="363.83" cy="151.72" r="72.78" fill="url(#radial-gradient-3)" mix-blend-mode="color-dodge"/>
          <circle cx="378.71" cy="189.09" r="72.78" fill="url(#radial-gradient-4)" mix-blend-mode="color-dodge"/>
          <circle cx="409.22" cy="224.5" r="72.78" fill="url(#radial-gradient-5)" mix-blend-mode="color-dodge"/>
          <circle cx="268.5" cy="220.69" r="72.78" fill="url(#radial-gradient-6)" mix-blend-mode="color-dodge"/>
          <circle cx="328.64" cy="288.95" r="72.78" fill="url(#radial-gradient-7)" mix-blend-mode="color-dodge"/>
          <circle cx="309.36" cy="319.32" r="72.78" fill="url(#radial-gradient-8)" mix-blend-mode="color-dodge"/>
          <circle cx="294.07" cy="358.7" r="72.78" fill="url(#radial-gradient-9)" mix-blend-mode="color-dodge"/>
          <circle cx="378.71" cy="367.85" r="72.78" fill="url(#radial-gradient-10)" mix-blend-mode="color-dodge"/>
          <circle cx="374.16" cy="444.86" r="72.78" fill="url(#radial-gradient-11)" mix-blend-mode="color-dodge"/>
        </g>
      </g>
    </g>
  </g>
</svg>