<?xml version="1.0" encoding="UTF-8"?>
<svg xmlns="http://www.w3.org/2000/svg" xmlns:xlink="http://www.w3.org/1999/xlink" viewBox="0 0 1233.31 566.93">
  <defs>
    <radialGradient id="radial-gradient" cx="759.16" cy="268.16" fx="759.16" fy="268.16" r="214.71" gradientUnits="userSpaceOnUse">
      <stop offset="0" stop-color="#a2d9d4"/>
      <stop offset="1" stop-color="#4eaba4"/>
    </radialGradient>
    <linearGradient id="linear-gradient" x1="361.96" y1="219.66" x2="113.64" y2="396.1" gradientUnits="userSpaceOnUse">
      <stop offset=".05" stop-color="#d5e7b3"/>
      <stop offset=".31" stop-color="#a2d9d4"/>
      <stop offset=".52" stop-color="#2a676d"/>
      <stop offset=".75" stop-color="#85cdb2"/>
      <stop offset=".91" stop-color="#4eaba4"/>
    </linearGradient>
    <radialGradient id="radial-gradient-2" cx="183.64" cy="176" fx="183.64" fy="176" r="62.82" gradientUnits="userSpaceOnUse">
      <stop offset=".03" stop-color="#fff"/>
      <stop offset=".1" stop-color="#fff" stop-opacity=".83"/>
      <stop offset=".19" stop-color="#fff" stop-opacity=".64"/>
      <stop offset=".29" stop-color="#fff" stop-opacity=".47"/>
      <stop offset=".38" stop-color="#fff" stop-opacity=".32"/>
      <stop offset=".49" stop-color="#fff" stop-opacity=".21"/>
      <stop offset=".59" stop-color="#fff" stop-opacity=".11"/>
      <stop offset=".71" stop-color="#fff" stop-opacity=".05"/>
      <stop offset=".83" stop-color="#fff" stop-opacity=".01"/>
      <stop offset="1" stop-color="#fff" stop-opacity="0"/>
    </radialGradient>
    <radialGradient id="radial-gradient-3" cx="210.17" cy="93.12" fx="210.17" fy="93.12" r="62.82" xlink:href="#radial-gradient-2"/>
    <radialGradient id="radial-gradient-4" cx="361.75" cy="146.19" fx="361.75" fy="146.19" r="62.82" xlink:href="#radial-gradient-2"/>
    <radialGradient id="radial-gradient-5" cx="375.94" cy="181.81" fx="375.94" fy="181.81" r="62.82" xlink:href="#radial-gradient-2"/>
    <radialGradient id="radial-gradient-6" cx="405.02" cy="215.56" fx="405.02" fy="215.56" r="62.82" xlink:href="#radial-gradient-2"/>
    <radialGradient id="radial-gradient-7" cx="270.89" cy="211.93" fx="270.89" fy="211.93" r="62.82" xlink:href="#radial-gradient-2"/>
    <radialGradient id="radial-gradient-8" cx="328.22" cy="277" fx="328.22" fy="277" r="62.82" xlink:href="#radial-gradient-2"/>
    <radialGradient id="radial-gradient-9" cx="309.84" cy="305.94" fx="309.84" fy="305.94" r="62.82" xlink:href="#radial-gradient-2"/>
    <radialGradient id="radial-gradient-10" cx="295.27" cy="343.48" fx="295.27" fy="343.48" r="62.82" xlink:href="#radial-gradient-2"/>
    <radialGradient id="radial-gradient-11" cx="375.94" cy="352.2" fx="375.94" fy="352.2" r="69.37" xlink:href="#radial-gradient-2"/>
    <radialGradient id="radial-gradient-12" cx="371.61" cy="425.61" fx="371.61" fy="425.61" r="62.82" xlink:href="#radial-gradient-2"/>
  </defs>
  <g isolation="isolate">
    <g id="Layer_3" data-name="Layer 3">
      <g>
        <g>
          <path d="m592.2,229.16h-33.42v31h37.25v9.31h-48.35v-85.98h46.43v9.31h-35.33v27.17h33.42v9.18Z" fill="#231f20"/>
          <path d="m610.06,224.44c0-6.38-.13-11.61-.51-16.71h9.95l.64,10.21h.25c3.06-5.87,10.21-11.61,20.41-11.61,8.55,0,21.81,5.1,21.81,26.28v36.87h-11.23v-35.59c0-9.95-3.7-18.24-14.29-18.24-7.4,0-13.14,5.23-15.05,11.48-.51,1.4-.76,3.32-.76,5.23v37.12h-11.23v-45.03Z" fill="#231f20"/>
          <path d="m680.86,178.9h11.23v38.52h.25c1.79-3.19,4.59-6,8.04-7.91,3.32-1.91,7.27-3.19,11.48-3.19,8.29,0,21.56,5.1,21.56,26.41v36.74h-11.23v-35.46c0-9.95-3.7-18.37-14.29-18.37-7.27,0-13.01,5.1-15.05,11.23-.64,1.53-.76,3.19-.76,5.36v37.25h-11.23v-90.57Z" fill="#231f20"/>
          <path d="m785.85,269.47l-.89-7.78h-.38c-3.44,4.85-10.08,9.18-18.88,9.18-12.5,0-18.88-8.8-18.88-17.73,0-14.92,13.27-23.09,37.12-22.96v-1.28c0-5.1-1.4-14.29-14.03-14.29-5.74,0-11.74,1.79-16.07,4.59l-2.55-7.4c5.1-3.32,12.5-5.49,20.28-5.49,18.88,0,23.47,12.88,23.47,25.26v23.09c0,5.36.25,10.59,1.02,14.8h-10.21Zm-1.66-31.51c-12.25-.26-26.15,1.91-26.15,13.9,0,7.27,4.85,10.71,10.59,10.71,8.04,0,13.14-5.1,14.92-10.33.38-1.15.64-2.42.64-3.57v-10.71Z" fill="#231f20"/>
          <path d="m813.15,224.44c0-6.38-.13-11.61-.51-16.71h9.95l.64,10.21h.25c3.06-5.87,10.21-11.61,20.41-11.61,8.55,0,21.81,5.1,21.81,26.28v36.87h-11.23v-35.59c0-9.95-3.7-18.24-14.29-18.24-7.4,0-13.14,5.23-15.05,11.48-.51,1.4-.76,3.32-.76,5.23v37.12h-11.23v-45.03Z" fill="#231f20"/>
          <path d="m927.96,267.18c-2.93,1.53-9.44,3.57-17.73,3.57-18.62,0-30.74-12.63-30.74-31.51s13.01-32.78,33.17-32.78c6.63,0,12.5,1.66,15.56,3.19l-2.55,8.67c-2.68-1.53-6.89-2.93-13.01-2.93-14.16,0-21.81,10.46-21.81,23.34,0,14.29,9.18,23.09,21.43,23.09,6.38,0,10.59-1.66,13.78-3.06l1.91,8.42Z" fill="#231f20"/>
          <path d="m953.6,190.38c.13,3.83-2.68,6.89-7.14,6.89-3.95,0-6.76-3.06-6.76-6.89s2.93-7.02,7.02-7.02,6.89,3.06,6.89,7.02Zm-12.5,79.09v-61.74h11.23v61.74h-11.23Z" fill="#231f20"/>
          <path d="m970.95,224.44c0-6.38-.13-11.61-.51-16.71h9.95l.64,10.21h.25c3.06-5.87,10.21-11.61,20.41-11.61,8.55,0,21.81,5.1,21.81,26.28v36.87h-11.23v-35.59c0-9.95-3.7-18.24-14.29-18.24-7.4,0-13.14,5.23-15.05,11.48-.51,1.4-.76,3.32-.76,5.23v37.12h-11.23v-45.03Z" fill="#231f20"/>
          <path d="m1094.94,207.73c-.25,4.46-.51,9.44-.51,16.97v35.84c0,14.16-2.81,22.83-8.8,28.19-6,5.61-14.67,7.4-22.45,7.4s-15.56-1.79-20.54-5.1l2.81-8.55c4.08,2.55,10.46,4.85,18.11,4.85,11.48,0,19.9-6,19.9-21.56v-6.89h-.25c-3.44,5.74-10.08,10.33-19.64,10.33-15.31,0-26.28-13.01-26.28-30.11,0-20.92,13.65-32.78,27.81-32.78,10.72,0,16.58,5.61,19.26,10.71h.26l.51-9.31h9.82Zm-11.61,24.36c0-1.91-.13-3.57-.64-5.1-2.04-6.51-7.53-11.86-15.69-11.86-10.71,0-18.37,9.06-18.37,23.34,0,12.12,6.12,22.2,18.24,22.2,6.89,0,13.14-4.34,15.56-11.48.64-1.91.89-4.08.89-6v-11.1Z" fill="#231f20"/>
          <path d="m566.56,421.84l-28.06-85.98h11.99l13.39,42.35c3.7,11.61,6.89,22.07,9.18,32.15h.25c2.42-9.95,6-20.79,9.82-32.02l14.54-42.48h11.86l-30.74,85.98h-12.25Z" fill="#231f20"/>
          <path d="m648.46,421.84l-.89-7.78h-.38c-3.44,4.85-10.08,9.18-18.88,9.18-12.5,0-18.88-8.8-18.88-17.73,0-14.92,13.27-23.09,37.12-22.96v-1.28c0-5.1-1.4-14.29-14.03-14.29-5.74,0-11.74,1.79-16.07,4.59l-2.55-7.4c5.1-3.32,12.5-5.48,20.28-5.48,18.88,0,23.47,12.88,23.47,25.26v23.09c0,5.36.25,10.59,1.02,14.8h-10.21Zm-1.66-31.51c-12.25-.26-26.15,1.91-26.15,13.9,0,7.27,4.85,10.71,10.59,10.71,8.04,0,13.14-5.1,14.92-10.33.38-1.15.64-2.42.64-3.57v-10.71Z" fill="#231f20"/>
          <path d="m675.76,331.27h11.23v90.57h-11.23v-90.57Z" fill="#231f20"/>
          <path d="m757.53,405c0,6.38.13,11.99.51,16.84h-9.95l-.64-10.08h-.25c-2.93,4.97-9.44,11.48-20.41,11.48-9.69,0-21.3-5.36-21.3-27.04v-36.1h11.23v34.19c0,11.74,3.57,19.64,13.78,19.64,7.53,0,12.76-5.23,14.8-10.21.64-1.66,1.02-3.7,1.02-5.74v-37.89h11.23v44.9Z" fill="#231f20"/>
          <path d="m782.41,393.01c.26,15.18,9.95,21.43,21.18,21.43,8.04,0,12.88-1.4,17.09-3.19l1.91,8.04c-3.95,1.79-10.71,3.83-20.54,3.83-19.01,0-30.36-12.5-30.36-31.12s10.97-33.29,28.96-33.29c20.15,0,25.51,17.73,25.51,29.08,0,2.3-.26,4.08-.38,5.23h-43.37Zm32.91-8.04c.13-7.14-2.93-18.24-15.56-18.24-11.35,0-16.33,10.46-17.22,18.24h32.78Z" fill="#231f20"/>
          <path d="m838.54,410.36c3.32,2.17,9.18,4.46,14.8,4.46,8.16,0,11.99-4.08,11.99-9.18,0-5.36-3.19-8.29-11.48-11.35-11.1-3.95-16.33-10.08-16.33-17.48,0-9.95,8.04-18.11,21.3-18.11,6.25,0,11.74,1.79,15.18,3.83l-2.81,8.16c-2.42-1.53-6.89-3.57-12.63-3.57-6.63,0-10.33,3.83-10.33,8.42,0,5.1,3.7,7.4,11.74,10.46,10.72,4.08,16.2,9.44,16.2,18.62,0,10.84-8.42,18.5-23.09,18.5-6.76,0-13.01-1.66-17.35-4.21l2.81-8.55Z" fill="#231f20"/>
        </g>
        <g>
          <path d="m592.2,229.16h-33.42v31h37.25v9.31h-48.35v-85.98h46.43v9.31h-35.33v27.17h33.42v9.18Z" fill="url(#radial-gradient)"/>
          <path d="m610.06,224.44c0-6.38-.13-11.61-.51-16.71h9.95l.64,10.21h.25c3.06-5.87,10.21-11.61,20.41-11.61,8.55,0,21.81,5.1,21.81,26.28v36.87h-11.23v-35.59c0-9.95-3.7-18.24-14.29-18.24-7.4,0-13.14,5.23-15.05,11.48-.51,1.4-.76,3.32-.76,5.23v37.12h-11.23v-45.03Z" fill="url(#radial-gradient)"/>
          <path d="m680.86,178.9h11.23v38.52h.25c1.79-3.19,4.59-6,8.04-7.91,3.32-1.91,7.27-3.19,11.48-3.19,8.29,0,21.56,5.1,21.56,26.41v36.74h-11.23v-35.46c0-9.95-3.7-18.37-14.29-18.37-7.27,0-13.01,5.1-15.05,11.23-.64,1.53-.76,3.19-.76,5.36v37.25h-11.23v-90.57Z" fill="url(#radial-gradient)"/>
          <path d="m785.85,269.47l-.89-7.78h-.38c-3.44,4.85-10.08,9.18-18.88,9.18-12.5,0-18.88-8.8-18.88-17.73,0-14.92,13.27-23.09,37.12-22.96v-1.28c0-5.1-1.4-14.29-14.03-14.29-5.74,0-11.74,1.79-16.07,4.59l-2.55-7.4c5.1-3.32,12.5-5.49,20.28-5.49,18.88,0,23.47,12.88,23.47,25.26v23.09c0,5.36.25,10.59,1.02,14.8h-10.21Zm-1.66-31.51c-12.25-.26-26.15,1.91-26.15,13.9,0,7.27,4.85,10.71,10.59,10.71,8.04,0,13.14-5.1,14.92-10.33.38-1.15.64-2.42.64-3.57v-10.71Z" fill="url(#radial-gradient)"/>
          <path d="m813.15,224.44c0-6.38-.13-11.61-.51-16.71h9.95l.64,10.21h.25c3.06-5.87,10.21-11.61,20.41-11.61,8.55,0,21.81,5.1,21.81,26.28v36.87h-11.23v-35.59c0-9.95-3.7-18.24-14.29-18.24-7.4,0-13.14,5.23-15.05,11.48-.51,1.4-.76,3.32-.76,5.23v37.12h-11.23v-45.03Z" fill="url(#radial-gradient)"/>
          <path d="m927.96,267.18c-2.93,1.53-9.44,3.57-17.73,3.57-18.62,0-30.74-12.63-30.74-31.51s13.01-32.78,33.17-32.78c6.63,0,12.5,1.66,15.56,3.19l-2.55,8.67c-2.68-1.53-6.89-2.93-13.01-2.93-14.16,0-21.81,10.46-21.81,23.34,0,14.29,9.18,23.09,21.43,23.09,6.38,0,10.59-1.66,13.78-3.06l1.91,8.42Z" fill="url(#radial-gradient)"/>
          <path d="m953.6,190.38c.13,3.83-2.68,6.89-7.14,6.89-3.95,0-6.76-3.06-6.76-6.89s2.93-7.02,7.02-7.02,6.89,3.06,6.89,7.02Zm-12.5,79.09v-61.74h11.23v61.74h-11.23Z" fill="url(#radial-gradient)"/>
          <path d="m970.95,224.44c0-6.38-.13-11.61-.51-16.71h9.95l.64,10.21h.25c3.06-5.87,10.21-11.61,20.41-11.61,8.55,0,21.81,5.1,21.81,26.28v36.87h-11.23v-35.59c0-9.95-3.7-18.24-14.29-18.24-7.4,0-13.14,5.23-15.05,11.48-.51,1.4-.76,3.32-.76,5.23v37.12h-11.23v-45.03Z" fill="url(#radial-gradient)"/>
          <path d="m1094.94,207.73c-.25,4.46-.51,9.44-.51,16.97v35.84c0,14.16-2.81,22.83-8.8,28.19-6,5.61-14.67,7.4-22.45,7.4s-15.56-1.79-20.54-5.1l2.81-8.55c4.08,2.55,10.46,4.85,18.11,4.85,11.48,0,19.9-6,19.9-21.56v-6.89h-.25c-3.44,5.74-10.08,10.33-19.64,10.33-15.31,0-26.28-13.01-26.28-30.11,0-20.92,13.65-32.78,27.81-32.78,10.72,0,16.58,5.61,19.26,10.71h.26l.51-9.31h9.82Zm-11.61,24.36c0-1.91-.13-3.57-.64-5.1-2.04-6.51-7.53-11.86-15.69-11.86-10.71,0-18.37,9.06-18.37,23.34,0,12.12,6.12,22.2,18.24,22.2,6.89,0,13.14-4.34,15.56-11.48.64-1.91.89-4.08.89-6v-11.1Z" fill="url(#radial-gradient)"/>
          <path d="m566.56,421.84l-28.06-85.98h11.99l13.39,42.35c3.7,11.61,6.89,22.07,9.18,32.15h.25c2.42-9.95,6-20.79,9.82-32.02l14.54-42.48h11.86l-30.74,85.98h-12.25Z" fill="url(#radial-gradient)"/>
          <path d="m648.46,421.84l-.89-7.78h-.38c-3.44,4.85-10.08,9.18-18.88,9.18-12.5,0-18.88-8.8-18.88-17.73,0-14.92,13.27-23.09,37.12-22.96v-1.28c0-5.1-1.4-14.29-14.03-14.29-5.74,0-11.74,1.79-16.07,4.59l-2.55-7.4c5.1-3.32,12.5-5.48,20.28-5.48,18.88,0,23.47,12.88,23.47,25.26v23.09c0,5.36.25,10.59,1.02,14.8h-10.21Zm-1.66-31.51c-12.25-.26-26.15,1.91-26.15,13.9,0,7.27,4.85,10.71,10.59,10.71,8.04,0,13.14-5.1,14.92-10.33.38-1.15.64-2.42.64-3.57v-10.71Z" fill="url(#radial-gradient)"/>
          <path d="m675.76,331.27h11.23v90.57h-11.23v-90.57Z" fill="url(#radial-gradient)"/>
          <path d="m757.53,405c0,6.38.13,11.99.51,16.84h-9.95l-.64-10.08h-.25c-2.93,4.97-9.44,11.48-20.41,11.48-9.69,0-21.3-5.36-21.3-27.04v-36.1h11.23v34.19c0,11.74,3.57,19.64,13.78,19.64,7.53,0,12.76-5.23,14.8-10.21.64-1.66,1.02-3.7,1.02-5.74v-37.89h11.23v44.9Z" fill="url(#radial-gradient)"/>
          <path d="m782.41,393.01c.26,15.18,9.95,21.43,21.18,21.43,8.04,0,12.88-1.4,17.09-3.19l1.91,8.04c-3.95,1.79-10.71,3.83-20.54,3.83-19.01,0-30.36-12.5-30.36-31.12s10.97-33.29,28.96-33.29c20.15,0,25.51,17.73,25.51,29.08,0,2.3-.26,4.08-.38,5.23h-43.37Zm32.91-8.04c.13-7.14-2.93-18.24-15.56-18.24-11.35,0-16.33,10.46-17.22,18.24h32.78Z" fill="url(#radial-gradient)"/>
          <path d="m838.54,410.36c3.32,2.17,9.18,4.46,14.8,4.46,8.16,0,11.99-4.08,11.99-9.18,0-5.36-3.19-8.29-11.48-11.35-11.1-3.95-16.33-10.08-16.33-17.48,0-9.95,8.04-18.11,21.3-18.11,6.25,0,11.74,1.79,15.18,3.83l-2.81,8.16c-2.42-1.53-6.89-3.57-12.63-3.57-6.63,0-10.33,3.83-10.33,8.42,0,5.1,3.7,7.4,11.74,10.46,10.72,4.08,16.2,9.44,16.2,18.62,0,10.84-8.42,18.5-23.09,18.5-6.76,0-13.01-1.66-17.35-4.21l2.81-8.55Z" fill="url(#radial-gradient)"/>
        </g>
      </g>
      <path d="m405.76,205.93c-4.64-.94-9.16,2.07-10.1,6.71-.91,4.51,1.9,8.89,6.31,10-1.98,58.03-38.54,107.98-79.93,146.23,1.66-9.12,3.07-18.71,4.15-28.82,3.44-4.62,42.24-60.72,50.75-151.84,3.77-.17,6.77-3.26,6.77-7.07s-3.18-7.1-7.1-7.1-7.1,3.18-7.1,7.1c0,3.4,2.39,6.23,5.58,6.93-7.66,81.48-40.44,135.99-48.54,148.26,1.58-16.07,2.35-33.35,2.06-51.92,3.52-.42,6.25-3.38,6.25-7.01,0-3.92-3.18-7.1-7.1-7.1s-7.1,3.18-7.1,7.1c0,3.58,2.66,6.51,6.1,7,.52,32.76-2.28,61.54-6.99,86.55-13.86,12.61-28.2,23.92-41.9,33.79-8.7,6.26-17.42,12.14-25.98,17.63-.7-19.06-2.55-36.55-5.12-52.44,12.27-8.47,26.56-16.58,43.25-23.94.99,1.67,2.63,2.94,4.68,3.35,3.84.77,7.59-1.71,8.36-5.56.77-3.84-1.71-7.59-5.56-8.36-3.84-.77-7.59,1.71-8.36,5.56-.23,1.14-.14,2.26.15,3.31-16.49,7.27-30.65,15.26-42.86,23.63-1.96-11.76-4.31-22.62-6.88-32.57,17.86-12.15,38.59-21.65,62.44-26.19,1,2.68,3.32,4.81,6.33,5.42,4.64.94,9.16-2.07,10.1-6.71.94-4.64-2.07-9.16-6.71-10.1-4.64-.94-9.16,2.07-10.1,6.71-.2.99-.21,1.96-.08,2.91-23.98,4.62-44.75,14.25-62.45,26.22-1.06-4.02-2.15-7.91-3.26-11.62,51.13-41.46,112.81-103.39,125.43-168.57.09,0,.17.03.26.03,3.92,0,7.1-3.18,7.1-7.1s-3.18-7.1-7.1-7.1-7.1,3.18-7.1,7.1c0,3.19,2.12,5.86,5.02,6.75-12.48,64.37-73.44,125.74-124.2,166.98-1.73-5.63-3.49-10.91-5.27-15.81-.63-1.74-1.27-3.44-1.91-5.12,5.4-4.78,11.08-9.44,17.1-13.91,12.73-9.47,26.48-22.12,35.2-41.73.06-.02.12-.04.18-.06l.5-.2c29.54-10.23,49.39-38.12,49.39-69.4,0-40.48-32.94-73.42-73.42-73.42-6.7,0-13.18.92-19.35,2.61-6.02-3.36-12.46-6.13-19.26-8.28.09-.48.14-.97.14-1.48,0-4.49-3.64-8.14-8.14-8.14s-8.14,3.64-8.14,8.14,3.64,8.14,8.14,8.14c3.34,0,6.2-2.01,7.46-4.89,6.24,1.97,11.99,4.4,17.29,7.23-28.68,8.96-49.85,35.08-51.46,66.28-3.39.19-6.09,2.97-6.09,6.4s2.88,6.44,6.44,6.44,6.44-2.88,6.44-6.44c0-2.9-1.93-5.32-4.56-6.13,1.53-31.09,23.1-56.97,52.02-65.03,34.33,19.84,48.32,56.59,49.44,86.19.78,20.61-2.57,36.92-8.22,50.1-23.67,8.39-44.72,18.51-63.41,29.6-9.76-19.41-18.71-31.63-22.57-36.52,19.89-8.57,43.18-15.06,69.52-19.35,1.33,3.02,4.34,5.13,7.85,5.13,4.74,0,8.57-3.84,8.57-8.57s-3.84-8.58-8.57-8.58c-4.42,0-8.05,3.34-8.52,7.64-64.58,10.5-111.27,34.28-135.3,69.04-18.12,26.21-23.12,58.23-14.86,95.15.51,2.29,1.36,4.41,2.18,6.47.21.52.41,1.04.61,1.56,1.79,4.64,5.31,16.88-.49,30.68-1.02,1.7-8.95,15.42-3.68,23.98,3.04,4.94,9.61,7.01,19.47,6.13.02,0,.99.05,2.04,1.04,1.18,1.11,3.16,4.12,3.16,11.85,0,.36.07,3.6,2.6,5.46,1.43,1.06,3.24,1.4,5.39,1.02l-.54,3.59c-.33,2.22.55,4.46,2.31,5.86l5.98,4.73c1.59,1.26,2.51,3.12,2.55,5.11.1,6.82,1.56,19.07,10.1,24.45,6.15,3.87,14.64,3.36,25.23-1.51,17.3-7.97,25.44-6.88,29.21-4.57,3.76,2.31,3.96,6.33,3.97,6.49v.41s.16.38.16.38c3.75,9.16,12.5,14.9,22.09,14.9,1.29,0,2.6-.1,3.92-.32,32.04-5.23,89.6-23.85,122.52-89.55,4.44.6,8.64-2.34,9.54-6.8.94-4.64-2.07-9.16-6.71-10.1-4.64-.94-9.16,2.07-10.1,6.71-.67,3.3.67,6.54,3.16,8.47-31.47,62.51-85.86,81.09-117.31,86.57,7.4-6.82,23.79-23.77,39.63-52.59,2.04-3.7,4.11-7.71,6.18-11.98,27.52-20.4,58.36-50.61,78.4-92.56.33.11.66.2,1,.27,4.64.94,9.16-2.07,10.1-6.71.94-4.64-2.07-9.16-6.71-10.1-4.64-.94-9.16,2.07-10.1,6.71-.74,3.67.99,7.25,4.03,9.06-19.2,40.2-48.41,69.53-75,89.73,9.37-20.01,18.58-45.87,24.69-77.94,17.16-15.6,31.77-31.52,43.66-47.64,24.5-33.21,37.49-67.31,38.69-101.46,4.1.13,7.82-2.71,8.66-6.87.94-4.64-2.07-9.16-6.71-10.1Zm-155.68,217.59c-12.49,7.95-24.61,15.06-35.82,21.27-1.23-13.65-3.64-26.85-6.82-39.4,9.61-11.51,21.91-23.21,37.66-34.3,2.53,15.89,4.33,33.38,4.99,52.43Zm-1.42,56.37c-16.25,8.2-29.19,13.02-35.21,15.09-.2-.02-.39-.05-.59-.07,2.51-16.37,2.84-32.52,1.58-48.11,11.17-6.17,23.25-13.23,35.71-21.13.5,16.87.1,34.95-1.49,54.22Zm-36.17-34.13c-13.88,7.64-26.3,13.87-36.17,18.59,1.49-5.55,3.43-11.45,5.93-17.58,4.86-11.88,12.32-25.57,23.72-39.6,3.06,12.31,5.37,25.24,6.52,38.59Zm32.27-76.69c-15.78,11.02-28.16,22.65-37.89,34.13-2.72-10.34-5.94-20.21-9.43-29.49,11.35-13.34,24.8-26.3,40.51-37.23,2.55,9.96,4.88,20.83,6.81,32.6Zm-7.27-34.36c-16.15,11.17-29.7,24.23-40.77,37.09-2.08-5.41-4.24-10.6-6.44-15.56,13.91-9.74,28.9-20.82,43.99-32.99,0,0,.01-.01.02-.02,1.09,3.67,2.16,7.51,3.2,11.47Zm-9.24-29.82c1.84,5.08,3.68,10.57,5.46,16.43-.19.16-.39.31-.58.47-14.96,12.06-29.81,23.05-43.61,32.72-1.24-2.76-2.49-5.44-3.74-8.04,11.13-15.64,24.6-31.42,40.83-46.02.55,1.46,1.1,2.94,1.65,4.44Zm-40.27,50.7c-5.12,3.57-10.08,6.95-14.84,10.14,3.49-5.77,7.29-11.64,11.42-17.54,1.15,2.4,2.29,4.87,3.42,7.4Zm-3.12-11.01c-.85-1.75-1.7-3.47-2.55-5.14-5.47-10.77-11.13-20.56-16.5-29.19,14.17-12.52,30.54-24.83,49.38-36.16,3.55,7.21,7.19,15.39,10.71,24.51-16.29,14.57-29.83,30.33-41.03,45.97Zm104.39-153.19c-.84-22.2-8.05-43.75-20.31-60.66-7.7-10.62-17.31-19.41-28.47-26.11,5.32-1.27,10.86-1.97,16.57-1.97,39.25,0,71.18,31.93,71.18,71.18,0,29.87-18.67,56.53-46.63,66.82,5.32-13.1,8.42-29.18,7.66-49.27Zm-11.34,53.01c-8.6,18.32-21.68,30.31-33.83,39.35-5.87,4.36-11.42,8.9-16.71,13.55-3.49-8.96-7.08-17.02-10.59-24.14,18.07-10.73,38.37-20.54,61.13-28.76Zm-86.44-9c3.62,4.53,12.73,16.8,22.72,36.69-18.9,11.35-35.34,23.69-49.58,36.24-12.08-19.13-22.55-32.09-26.02-36.24,13.05-14.66,30.83-26.96,52.88-36.69Zm-61.06,47.06c2.13-3.08,4.45-6.06,6.95-8.96,3.62,4.34,13.95,17.2,25.85,36.07-20.81,18.55-36.84,37.5-48.9,54.35-4.98-31.37.4-58.74,16.1-81.46Zm-14.18,91.66c-.53-2.37-1-4.72-1.41-7.06,12.07-17.12,28.3-36.55,49.6-55.58,5.31,8.53,10.89,18.21,16.29,28.84.98,1.93,1.97,3.93,2.96,5.97-5.19,7.35-9.86,14.66-14.06,21.8-23.26,15.4-41.23,25.78-47.78,29.48-.07-7.3-1.84-13.09-2.99-16.06-.21-.54-.42-1.07-.63-1.6-.79-1.98-1.53-3.86-1.97-5.79Zm18.84,67.59c-2.49-2.34-5.06-2.25-5.4-2.22-8.11.72-13.27-.64-15.36-4.03-3.39-5.49,1.57-15.92,3.76-19.48l.15-.3c2.41-5.67,3.39-11.1,3.57-15.97,5.41-3.03,22.74-12.94,45.73-28.04-18.69,32.72-27.47,61.32-30.48,72.57-.57-.98-1.22-1.82-1.97-2.53Zm8.4,16.94c-1.39.43-2.47.44-3.03.04-.64-.46-.8-1.57-.81-1.9,0-3.92-.47-7.19-1.38-9.83,2.35-9.31,11.39-41.18,32.72-77.56,5.65-3.74,11.61-7.79,17.79-12.09,2.26,5.13,4.49,10.5,6.61,16.09-3.88,4.59-7.46,9.15-10.72,13.56-24.73,33.56-36.97,66.31-38.88,71.82-.72-.3-1.53-.37-2.3-.13Zm4.24,10.6c-.52-.41-.78-1.07-.68-1.72l.78-5.17c.13-.85-.08-1.69-.55-2.38.01-.02.03-.05.04-.07h0s.02-.06.04-.13c.02-.07.05-.13.06-.19,1.4-4.07,16.25-45.51,48.68-84.29,3.48,9.33,6.68,19.24,9.35,29.62-12.03,14.56-19.83,28.81-24.87,41.13-2.77,6.76-4.84,13.25-6.4,19.32-10.01,4.74-17.1,7.78-20.03,9.01-.15-.13-.29-.27-.45-.4l-5.98-4.73Zm10.21,13.25c-.04-2.46-.89-4.79-2.4-6.69,3.11-1.32,9.42-4.05,18.08-8.12-4.29,17.86-4.08,31.68-3.75,37.13-1.43-.31-2.73-.82-3.9-1.56-6.77-4.26-7.94-14.84-8.03-20.76Zm29.04,18.98c-5.99,2.76-11.09,3.96-15.25,3.61-.34-5.15-.69-19.61,4.03-38.41,9.95-4.73,22.66-11.07,36.94-18.91,1.18,15.27.82,31.06-1.65,47.06-6.34-.03-14.39,2.19-24.07,6.65Zm39.43,5.37c-.15-1.56-1.03-6.56-5.96-9.64-1.03-.65-2.18-1.14-3.42-1.53,6.68-2.42,17.9-6.84,31.5-13.65-1.02,11.78-2.48,23.99-4.46,36.64-7.62-.08-14.56-4.61-17.66-11.83Zm60.94-42.33c-17.51,31.88-35.64,49.09-41.38,54.08,0,0-.01,0-.02,0,2.02-12.97,3.5-25.48,4.51-37.54,7.92-4.03,16.59-8.84,25.61-14.52,5.03-3.17,10.34-6.71,15.8-10.65-1.52,3.02-3.03,5.91-4.52,8.63Zm6.28-12.2c-6.41,4.74-12.64,8.94-18.5,12.63-8.6,5.42-16.88,10.04-24.49,13.95,1.55-19.33,1.91-37.47,1.36-54.39,8.88-5.67,17.93-11.76,26.96-18.26,14.65-10.54,28.08-21.3,40.27-32.22-6.41,32.52-16.02,58.47-25.6,78.29Z" fill="url(#linear-gradient)"/>
      <g opacity=".4">
        <circle cx="183.64" cy="176" r="69.37" fill="url(#radial-gradient-2)" mix-blend-mode="color-dodge"/>
        <circle cx="210.17" cy="93.12" r="69.37" fill="url(#radial-gradient-3)" mix-blend-mode="color-dodge"/>
        <circle cx="361.75" cy="146.19" r="69.37" fill="url(#radial-gradient-4)" mix-blend-mode="color-dodge"/>
        <circle cx="375.94" cy="181.81" r="69.37" fill="url(#radial-gradient-5)" mix-blend-mode="color-dodge"/>
        <circle cx="405.02" cy="215.56" r="69.37" fill="url(#radial-gradient-6)" mix-blend-mode="color-dodge"/>
        <circle cx="270.89" cy="211.93" r="69.37" fill="url(#radial-gradient-7)" mix-blend-mode="color-dodge"/>
        <circle cx="328.22" cy="277" r="69.37" fill="url(#radial-gradient-8)" mix-blend-mode="color-dodge"/>
        <circle cx="309.84" cy="305.94" r="69.37" fill="url(#radial-gradient-9)" mix-blend-mode="color-dodge"/>
        <circle cx="295.27" cy="343.48" r="69.37" fill="url(#radial-gradient-10)" mix-blend-mode="color-dodge"/>
        <circle cx="375.94" cy="352.2" r="69.37" fill="url(#radial-gradient-11)" mix-blend-mode="color-dodge"/>
        <circle cx="371.61" cy="425.61" r="69.37" fill="url(#radial-gradient-12)" mix-blend-mode="color-dodge"/>
      </g>
    </g>
  </g>
</svg>